ISO-10303-21;
HEADER;
/* Generated by software containing ST-Developer
 * from STEP Tools, Inc. (www.steptools.com) 
 */
/* OPTION: using custom renumber hook */

FILE_DESCRIPTION(
/* description */ ('STEP AP242 Edition 2',
'CAx-IF Rec.Pracs.---Representation and Presentation of Product Manufa
cturing Information (PMI)---4.0---2014-10-13',
'CAx-IF Rec.Pracs.---3D Tessellated Geometry---0.4---2014-09-14','2;1',
'CAx-IF Rec.Pracs.---User Defined Attributes---1.5---2016-08-15'),
/* implementation_level */ '2;1');

FILE_NAME(
/* name */ 'case',
/* time_stamp */ '2026-09-04T13:53:14Z',
/* author */ (''),
/* organization */ (''),
/* preprocessor_version */ 'ST-DEVELOPER v20',
/* originating_system */ 'ONSHAPE BY PTC INC, 1.220',
/* authorisation */ '  ');

FILE_SCHEMA (('AP242_MANAGED_MODEL_BASED_3D_ENGINEERING_MIM_LF { 1 0 10303 442 3 1 4 }'));
ENDSEC;

DATA;
#10=SHAPE_REPRESENTATION_RELATIONSHIP('','',#979,#11);
#11=ADVANCED_BREP_SHAPE_REPRESENTATION('',(#977),#1571);
#12=CYLINDRICAL_SURFACE('',#1013,2.35);
#13=CYLINDRICAL_SURFACE('',#1016,2.35);
#14=CYLINDRICAL_SURFACE('',#1019,2.35);
#15=CYLINDRICAL_SURFACE('',#1022,2.35);
#16=CYLINDRICAL_SURFACE('',#1027,6.81040764008564);
#17=CYLINDRICAL_SURFACE('',#1030,6.8);
#18=LINE('',#1309,#136);
#19=LINE('',#1312,#137);
#20=LINE('',#1314,#138);
#21=LINE('',#1316,#139);
#22=LINE('',#1318,#140);
#23=LINE('',#1320,#141);
#24=LINE('',#1322,#142);
#25=LINE('',#1324,#143);
#26=LINE('',#1328,#144);
#27=LINE('',#1332,#145);
#28=LINE('',#1334,#146);
#29=LINE('',#1336,#147);
#30=LINE('',#1338,#148);
#31=LINE('',#1340,#149);
#32=LINE('',#1342,#150);
#33=LINE('',#1344,#151);
#34=LINE('',#1346,#152);
#35=LINE('',#1348,#153);
#36=LINE('',#1350,#154);
#37=LINE('',#1352,#155);
#38=LINE('',#1354,#156);
#39=LINE('',#1356,#157);
#40=LINE('',#1358,#158);
#41=LINE('',#1360,#159);
#42=LINE('',#1363,#160);
#43=LINE('',#1365,#161);
#44=LINE('',#1367,#162);
#45=LINE('',#1369,#163);
#46=LINE('',#1372,#164);
#47=LINE('',#1373,#165);
#48=LINE('',#1375,#166);
#49=LINE('',#1377,#167);
#50=LINE('',#1378,#168);
#51=LINE('',#1380,#169);
#52=LINE('',#1382,#170);
#53=LINE('',#1384,#171);
#54=LINE('',#1386,#172);
#55=LINE('',#1388,#173);
#56=LINE('',#1390,#174);
#57=LINE('',#1392,#175);
#58=LINE('',#1394,#176);
#59=LINE('',#1396,#177);
#60=LINE('',#1398,#178);
#61=LINE('',#1400,#179);
#62=LINE('',#1401,#180);
#63=LINE('',#1403,#181);
#64=LINE('',#1405,#182);
#65=LINE('',#1407,#183);
#66=LINE('',#1409,#184);
#67=LINE('',#1412,#185);
#68=LINE('',#1413,#186);
#69=LINE('',#1414,#187);
#70=LINE('',#1416,#188);
#71=LINE('',#1419,#189);
#72=LINE('',#1420,#190);
#73=LINE('',#1422,#191);
#74=LINE('',#1425,#192);
#75=LINE('',#1426,#193);
#76=LINE('',#1428,#194);
#77=LINE('',#1431,#195);
#78=LINE('',#1432,#196);
#79=LINE('',#1434,#197);
#80=LINE('',#1435,#198);
#81=LINE('',#1438,#199);
#82=LINE('',#1441,#200);
#83=LINE('',#1443,#201);
#84=LINE('',#1445,#202);
#85=LINE('',#1446,#203);
#86=LINE('',#1448,#204);
#87=LINE('',#1450,#205);
#88=LINE('',#1452,#206);
#89=LINE('',#1454,#207);
#90=LINE('',#1456,#208);
#91=LINE('',#1458,#209);
#92=LINE('',#1460,#210);
#93=LINE('',#1462,#211);
#94=LINE('',#1464,#212);
#95=LINE('',#1466,#213);
#96=LINE('',#1468,#214);
#97=LINE('',#1470,#215);
#98=LINE('',#1472,#216);
#99=LINE('',#1474,#217);
#100=LINE('',#1476,#218);
#101=LINE('',#1478,#219);
#102=LINE('',#1481,#220);
#103=LINE('',#1482,#221);
#104=LINE('',#1501,#222);
#105=LINE('',#1503,#223);
#106=LINE('',#1505,#224);
#107=LINE('',#1507,#225);
#108=LINE('',#1509,#226);
#109=LINE('',#1511,#227);
#110=LINE('',#1514,#228);
#111=LINE('',#1515,#229);
#112=LINE('',#1517,#230);
#113=LINE('',#1519,#231);
#114=LINE('',#1521,#232);
#115=LINE('',#1525,#233);
#116=LINE('',#1527,#234);
#117=LINE('',#1531,#235);
#118=LINE('',#1534,#236);
#119=LINE('',#1535,#237);
#120=LINE('',#1537,#238);
#121=LINE('',#1539,#239);
#122=LINE('',#1541,#240);
#123=LINE('',#1543,#241);
#124=LINE('',#1545,#242);
#125=LINE('',#1547,#243);
#126=LINE('',#1549,#244);
#127=LINE('',#1551,#245);
#128=LINE('',#1553,#246);
#129=LINE('',#1555,#247);
#130=LINE('',#1558,#248);
#131=LINE('',#1560,#249);
#132=LINE('',#1561,#250);
#133=LINE('',#1564,#251);
#134=LINE('',#1566,#252);
#135=LINE('',#1568,#253);
#136=VECTOR('',#1059,1000.);
#137=VECTOR('',#1060,1000.);
#138=VECTOR('',#1061,1000.);
#139=VECTOR('',#1062,1000.);
#140=VECTOR('',#1063,1000.);
#141=VECTOR('',#1064,1000.);
#142=VECTOR('',#1065,1000.);
#143=VECTOR('',#1066,1000.);
#144=VECTOR('',#1069,1000.);
#145=VECTOR('',#1072,1000.);
#146=VECTOR('',#1073,1000.);
#147=VECTOR('',#1074,1000.);
#148=VECTOR('',#1075,1000.);
#149=VECTOR('',#1076,1000.);
#150=VECTOR('',#1077,1000.);
#151=VECTOR('',#1078,1000.);
#152=VECTOR('',#1079,1000.);
#153=VECTOR('',#1080,1000.);
#154=VECTOR('',#1081,1000.);
#155=VECTOR('',#1082,1000.);
#156=VECTOR('',#1083,1000.);
#157=VECTOR('',#1086,1000.);
#158=VECTOR('',#1087,1000.);
#159=VECTOR('',#1090,1000.);
#160=VECTOR('',#1091,1000.);
#161=VECTOR('',#1092,1000.);
#162=VECTOR('',#1093,1000.);
#163=VECTOR('',#1096,1000.);
#164=VECTOR('',#1097,1000.);
#165=VECTOR('',#1098,1000.);
#166=VECTOR('',#1101,1000.);
#167=VECTOR('',#1102,1000.);
#168=VECTOR('',#1103,1000.);
#169=VECTOR('',#1104,1000.);
#170=VECTOR('',#1107,1000.);
#171=VECTOR('',#1108,1000.);
#172=VECTOR('',#1109,1000.);
#173=VECTOR('',#1110,1000.);
#174=VECTOR('',#1111,1000.);
#175=VECTOR('',#1112,1000.);
#176=VECTOR('',#1113,1000.);
#177=VECTOR('',#1116,1000.);
#178=VECTOR('',#1117,1000.);
#179=VECTOR('',#1118,1000.);
#180=VECTOR('',#1119,1000.);
#181=VECTOR('',#1122,1000.);
#182=VECTOR('',#1123,1000.);
#183=VECTOR('',#1124,1000.);
#184=VECTOR('',#1127,1000.);
#185=VECTOR('',#1128,1000.);
#186=VECTOR('',#1129,1000.);
#187=VECTOR('',#1130,1000.);
#188=VECTOR('',#1133,1000.);
#189=VECTOR('',#1134,1000.);
#190=VECTOR('',#1135,1000.);
#191=VECTOR('',#1138,1000.);
#192=VECTOR('',#1139,1000.);
#193=VECTOR('',#1140,1000.);
#194=VECTOR('',#1143,1000.);
#195=VECTOR('',#1144,1000.);
#196=VECTOR('',#1145,1000.);
#197=VECTOR('',#1148,1000.);
#198=VECTOR('',#1149,1000.);
#199=VECTOR('',#1154,1000.);
#200=VECTOR('',#1155,1000.);
#201=VECTOR('',#1156,1000.);
#202=VECTOR('',#1157,1000.);
#203=VECTOR('',#1158,1000.);
#204=VECTOR('',#1159,1000.);
#205=VECTOR('',#1160,1000.);
#206=VECTOR('',#1161,1000.);
#207=VECTOR('',#1162,1000.);
#208=VECTOR('',#1165,1000.);
#209=VECTOR('',#1166,1000.);
#210=VECTOR('',#1169,1000.);
#211=VECTOR('',#1170,1000.);
#212=VECTOR('',#1173,1000.);
#213=VECTOR('',#1174,1000.);
#214=VECTOR('',#1177,1000.);
#215=VECTOR('',#1178,1000.);
#216=VECTOR('',#1181,1000.);
#217=VECTOR('',#1182,1000.);
#218=VECTOR('',#1185,1000.);
#219=VECTOR('',#1186,1000.);
#220=VECTOR('',#1191,1000.);
#221=VECTOR('',#1192,1000.);
#222=VECTOR('',#1221,1000.);
#223=VECTOR('',#1222,1000.);
#224=VECTOR('',#1223,1000.);
#225=VECTOR('',#1226,1000.);
#226=VECTOR('',#1227,1000.);
#227=VECTOR('',#1230,1000.);
#228=VECTOR('',#1231,1000.);
#229=VECTOR('',#1232,1000.);
#230=VECTOR('',#1235,1000.);
#231=VECTOR('',#1236,1000.);
#232=VECTOR('',#1239,1000.);
#233=VECTOR('',#1244,1000.);
#234=VECTOR('',#1245,1000.);
#235=VECTOR('',#1252,1000.);
#236=VECTOR('',#1253,1000.);
#237=VECTOR('',#1254,1000.);
#238=VECTOR('',#1255,1000.);
#239=VECTOR('',#1256,1000.);
#240=VECTOR('',#1257,1000.);
#241=VECTOR('',#1258,1000.);
#242=VECTOR('',#1261,1000.);
#243=VECTOR('',#1264,1000.);
#244=VECTOR('',#1267,1000.);
#245=VECTOR('',#1270,1000.);
#246=VECTOR('',#1273,1000.);
#247=VECTOR('',#1276,1000.);
#248=VECTOR('',#1281,1000.);
#249=VECTOR('',#1284,1000.);
#250=VECTOR('',#1285,1000.);
#251=VECTOR('',#1290,1000.);
#252=VECTOR('',#1293,1000.);
#253=VECTOR('',#1296,1000.);
#254=ORIENTED_EDGE('',*,*,#514,.T.);
#255=ORIENTED_EDGE('',*,*,#515,.T.);
#256=ORIENTED_EDGE('',*,*,#516,.T.);
#257=ORIENTED_EDGE('',*,*,#517,.T.);
#258=ORIENTED_EDGE('',*,*,#518,.T.);
#259=ORIENTED_EDGE('',*,*,#519,.T.);
#260=ORIENTED_EDGE('',*,*,#520,.T.);
#261=ORIENTED_EDGE('',*,*,#521,.T.);
#262=ORIENTED_EDGE('',*,*,#522,.T.);
#263=ORIENTED_EDGE('',*,*,#523,.T.);
#264=ORIENTED_EDGE('',*,*,#524,.F.);
#265=ORIENTED_EDGE('',*,*,#525,.T.);
#266=ORIENTED_EDGE('',*,*,#526,.F.);
#267=ORIENTED_EDGE('',*,*,#527,.T.);
#268=ORIENTED_EDGE('',*,*,#528,.F.);
#269=ORIENTED_EDGE('',*,*,#529,.F.);
#270=ORIENTED_EDGE('',*,*,#530,.T.);
#271=ORIENTED_EDGE('',*,*,#531,.T.);
#272=ORIENTED_EDGE('',*,*,#532,.F.);
#273=ORIENTED_EDGE('',*,*,#533,.F.);
#274=ORIENTED_EDGE('',*,*,#534,.F.);
#275=ORIENTED_EDGE('',*,*,#535,.T.);
#276=ORIENTED_EDGE('',*,*,#536,.F.);
#277=ORIENTED_EDGE('',*,*,#537,.T.);
#278=ORIENTED_EDGE('',*,*,#538,.F.);
#279=ORIENTED_EDGE('',*,*,#539,.F.);
#280=ORIENTED_EDGE('',*,*,#540,.T.);
#281=ORIENTED_EDGE('',*,*,#541,.F.);
#282=ORIENTED_EDGE('',*,*,#532,.T.);
#283=ORIENTED_EDGE('',*,*,#542,.T.);
#284=ORIENTED_EDGE('',*,*,#543,.F.);
#285=ORIENTED_EDGE('',*,*,#544,.T.);
#286=ORIENTED_EDGE('',*,*,#545,.T.);
#287=ORIENTED_EDGE('',*,*,#546,.F.);
#288=ORIENTED_EDGE('',*,*,#547,.F.);
#289=ORIENTED_EDGE('',*,*,#548,.T.);
#290=ORIENTED_EDGE('',*,*,#543,.T.);
#291=ORIENTED_EDGE('',*,*,#549,.T.);
#292=ORIENTED_EDGE('',*,*,#550,.F.);
#293=ORIENTED_EDGE('',*,*,#551,.T.);
#294=ORIENTED_EDGE('',*,*,#547,.T.);
#295=ORIENTED_EDGE('',*,*,#552,.T.);
#296=ORIENTED_EDGE('',*,*,#553,.F.);
#297=ORIENTED_EDGE('',*,*,#554,.F.);
#298=ORIENTED_EDGE('',*,*,#553,.T.);
#299=ORIENTED_EDGE('',*,*,#555,.F.);
#300=ORIENTED_EDGE('',*,*,#556,.F.);
#301=ORIENTED_EDGE('',*,*,#557,.F.);
#302=ORIENTED_EDGE('',*,*,#558,.T.);
#303=ORIENTED_EDGE('',*,*,#559,.F.);
#304=ORIENTED_EDGE('',*,*,#560,.F.);
#305=ORIENTED_EDGE('',*,*,#561,.T.);
#306=ORIENTED_EDGE('',*,*,#562,.F.);
#307=ORIENTED_EDGE('',*,*,#563,.F.);
#308=ORIENTED_EDGE('',*,*,#520,.F.);
#309=ORIENTED_EDGE('',*,*,#564,.T.);
#310=ORIENTED_EDGE('',*,*,#556,.T.);
#311=ORIENTED_EDGE('',*,*,#565,.F.);
#312=ORIENTED_EDGE('',*,*,#566,.F.);
#313=ORIENTED_EDGE('',*,*,#567,.T.);
#314=ORIENTED_EDGE('',*,*,#562,.T.);
#315=ORIENTED_EDGE('',*,*,#568,.F.);
#316=ORIENTED_EDGE('',*,*,#569,.T.);
#317=ORIENTED_EDGE('',*,*,#522,.F.);
#318=ORIENTED_EDGE('',*,*,#570,.T.);
#319=ORIENTED_EDGE('',*,*,#566,.T.);
#320=ORIENTED_EDGE('',*,*,#571,.T.);
#321=ORIENTED_EDGE('',*,*,#572,.F.);
#322=ORIENTED_EDGE('',*,*,#573,.T.);
#323=ORIENTED_EDGE('',*,*,#568,.T.);
#324=ORIENTED_EDGE('',*,*,#574,.T.);
#325=ORIENTED_EDGE('',*,*,#575,.F.);
#326=ORIENTED_EDGE('',*,*,#576,.T.);
#327=ORIENTED_EDGE('',*,*,#572,.T.);
#328=ORIENTED_EDGE('',*,*,#577,.F.);
#329=ORIENTED_EDGE('',*,*,#578,.F.);
#330=ORIENTED_EDGE('',*,*,#579,.T.);
#331=ORIENTED_EDGE('',*,*,#575,.T.);
#332=ORIENTED_EDGE('',*,*,#580,.F.);
#333=ORIENTED_EDGE('',*,*,#545,.F.);
#334=ORIENTED_EDGE('',*,*,#581,.T.);
#335=ORIENTED_EDGE('',*,*,#578,.T.);
#336=ORIENTED_EDGE('',*,*,#582,.F.);
#337=ORIENTED_EDGE('',*,*,#546,.T.);
#338=ORIENTED_EDGE('',*,*,#582,.T.);
#339=ORIENTED_EDGE('',*,*,#580,.T.);
#340=ORIENTED_EDGE('',*,*,#577,.T.);
#341=ORIENTED_EDGE('',*,*,#574,.F.);
#342=ORIENTED_EDGE('',*,*,#571,.F.);
#343=ORIENTED_EDGE('',*,*,#565,.T.);
#344=ORIENTED_EDGE('',*,*,#561,.F.);
#345=ORIENTED_EDGE('',*,*,#555,.T.);
#346=ORIENTED_EDGE('',*,*,#552,.F.);
#347=ORIENTED_EDGE('',*,*,#549,.F.);
#348=ORIENTED_EDGE('',*,*,#583,.F.);
#349=ORIENTED_EDGE('',*,*,#584,.T.);
#350=ORIENTED_EDGE('',*,*,#585,.F.);
#351=ORIENTED_EDGE('',*,*,#586,.F.);
#352=ORIENTED_EDGE('',*,*,#534,.T.);
#353=ORIENTED_EDGE('',*,*,#587,.F.);
#354=ORIENTED_EDGE('',*,*,#588,.F.);
#355=ORIENTED_EDGE('',*,*,#589,.F.);
#356=ORIENTED_EDGE('',*,*,#590,.F.);
#357=ORIENTED_EDGE('',*,*,#591,.T.);
#358=ORIENTED_EDGE('',*,*,#592,.T.);
#359=ORIENTED_EDGE('',*,*,#593,.F.);
#360=ORIENTED_EDGE('',*,*,#535,.F.);
#361=ORIENTED_EDGE('',*,*,#586,.T.);
#362=ORIENTED_EDGE('',*,*,#594,.F.);
#363=ORIENTED_EDGE('',*,*,#595,.F.);
#364=ORIENTED_EDGE('',*,*,#536,.T.);
#365=ORIENTED_EDGE('',*,*,#593,.T.);
#366=ORIENTED_EDGE('',*,*,#596,.T.);
#367=ORIENTED_EDGE('',*,*,#597,.F.);
#368=ORIENTED_EDGE('',*,*,#537,.F.);
#369=ORIENTED_EDGE('',*,*,#595,.T.);
#370=ORIENTED_EDGE('',*,*,#598,.F.);
#371=ORIENTED_EDGE('',*,*,#599,.F.);
#372=ORIENTED_EDGE('',*,*,#538,.T.);
#373=ORIENTED_EDGE('',*,*,#597,.T.);
#374=ORIENTED_EDGE('',*,*,#600,.F.);
#375=ORIENTED_EDGE('',*,*,#601,.F.);
#376=ORIENTED_EDGE('',*,*,#539,.T.);
#377=ORIENTED_EDGE('',*,*,#599,.T.);
#378=ORIENTED_EDGE('',*,*,#602,.T.);
#379=ORIENTED_EDGE('',*,*,#603,.F.);
#380=ORIENTED_EDGE('',*,*,#540,.F.);
#381=ORIENTED_EDGE('',*,*,#601,.T.);
#382=ORIENTED_EDGE('',*,*,#567,.F.);
#383=ORIENTED_EDGE('',*,*,#570,.F.);
#384=ORIENTED_EDGE('',*,*,#521,.F.);
#385=ORIENTED_EDGE('',*,*,#563,.T.);
#386=ORIENTED_EDGE('',*,*,#604,.T.);
#387=ORIENTED_EDGE('',*,*,#584,.F.);
#388=ORIENTED_EDGE('',*,*,#605,.F.);
#389=ORIENTED_EDGE('',*,*,#518,.F.);
#390=ORIENTED_EDGE('',*,*,#603,.T.);
#391=ORIENTED_EDGE('',*,*,#592,.F.);
#392=ORIENTED_EDGE('',*,*,#585,.T.);
#393=ORIENTED_EDGE('',*,*,#604,.F.);
#394=ORIENTED_EDGE('',*,*,#602,.F.);
#395=ORIENTED_EDGE('',*,*,#600,.T.);
#396=ORIENTED_EDGE('',*,*,#598,.T.);
#397=ORIENTED_EDGE('',*,*,#596,.F.);
#398=ORIENTED_EDGE('',*,*,#594,.T.);
#399=ORIENTED_EDGE('',*,*,#606,.F.);
#400=ORIENTED_EDGE('',*,*,#606,.T.);
#401=ORIENTED_EDGE('',*,*,#517,.F.);
#402=ORIENTED_EDGE('',*,*,#607,.F.);
#403=ORIENTED_EDGE('',*,*,#607,.T.);
#404=ORIENTED_EDGE('',*,*,#516,.F.);
#405=ORIENTED_EDGE('',*,*,#608,.F.);
#406=ORIENTED_EDGE('',*,*,#608,.T.);
#407=ORIENTED_EDGE('',*,*,#515,.F.);
#408=ORIENTED_EDGE('',*,*,#609,.F.);
#409=ORIENTED_EDGE('',*,*,#609,.T.);
#410=ORIENTED_EDGE('',*,*,#514,.F.);
#411=ORIENTED_EDGE('',*,*,#525,.F.);
#412=ORIENTED_EDGE('',*,*,#610,.F.);
#413=ORIENTED_EDGE('',*,*,#611,.T.);
#414=ORIENTED_EDGE('',*,*,#612,.T.);
#415=ORIENTED_EDGE('',*,*,#524,.T.);
#416=ORIENTED_EDGE('',*,*,#613,.T.);
#417=ORIENTED_EDGE('',*,*,#614,.F.);
#418=ORIENTED_EDGE('',*,*,#610,.T.);
#419=ORIENTED_EDGE('',*,*,#615,.T.);
#420=ORIENTED_EDGE('',*,*,#616,.T.);
#421=ORIENTED_EDGE('',*,*,#530,.F.);
#422=ORIENTED_EDGE('',*,*,#617,.F.);
#423=ORIENTED_EDGE('',*,*,#529,.T.);
#424=ORIENTED_EDGE('',*,*,#618,.F.);
#425=ORIENTED_EDGE('',*,*,#619,.F.);
#426=ORIENTED_EDGE('',*,*,#617,.T.);
#427=ORIENTED_EDGE('',*,*,#528,.T.);
#428=ORIENTED_EDGE('',*,*,#620,.F.);
#429=ORIENTED_EDGE('',*,*,#621,.F.);
#430=ORIENTED_EDGE('',*,*,#618,.T.);
#431=ORIENTED_EDGE('',*,*,#527,.F.);
#432=ORIENTED_EDGE('',*,*,#622,.F.);
#433=ORIENTED_EDGE('',*,*,#623,.T.);
#434=ORIENTED_EDGE('',*,*,#620,.T.);
#435=ORIENTED_EDGE('',*,*,#526,.T.);
#436=ORIENTED_EDGE('',*,*,#612,.F.);
#437=ORIENTED_EDGE('',*,*,#624,.F.);
#438=ORIENTED_EDGE('',*,*,#622,.T.);
#439=ORIENTED_EDGE('',*,*,#625,.T.);
#440=ORIENTED_EDGE('',*,*,#626,.T.);
#441=ORIENTED_EDGE('',*,*,#615,.F.);
#442=ORIENTED_EDGE('',*,*,#619,.T.);
#443=ORIENTED_EDGE('',*,*,#621,.T.);
#444=ORIENTED_EDGE('',*,*,#623,.F.);
#445=ORIENTED_EDGE('',*,*,#624,.T.);
#446=ORIENTED_EDGE('',*,*,#611,.F.);
#447=ORIENTED_EDGE('',*,*,#614,.T.);
#448=ORIENTED_EDGE('',*,*,#627,.T.);
#449=ORIENTED_EDGE('',*,*,#628,.T.);
#450=ORIENTED_EDGE('',*,*,#629,.T.);
#451=ORIENTED_EDGE('',*,*,#630,.T.);
#452=ORIENTED_EDGE('',*,*,#631,.T.);
#453=ORIENTED_EDGE('',*,*,#569,.F.);
#454=ORIENTED_EDGE('',*,*,#573,.F.);
#455=ORIENTED_EDGE('',*,*,#632,.F.);
#456=ORIENTED_EDGE('',*,*,#627,.F.);
#457=ORIENTED_EDGE('',*,*,#613,.F.);
#458=ORIENTED_EDGE('',*,*,#523,.F.);
#459=ORIENTED_EDGE('',*,*,#632,.T.);
#460=ORIENTED_EDGE('',*,*,#576,.F.);
#461=ORIENTED_EDGE('',*,*,#633,.F.);
#462=ORIENTED_EDGE('',*,*,#628,.F.);
#463=ORIENTED_EDGE('',*,*,#633,.T.);
#464=ORIENTED_EDGE('',*,*,#579,.F.);
#465=ORIENTED_EDGE('',*,*,#634,.F.);
#466=ORIENTED_EDGE('',*,*,#629,.F.);
#467=ORIENTED_EDGE('',*,*,#634,.T.);
#468=ORIENTED_EDGE('',*,*,#581,.F.);
#469=ORIENTED_EDGE('',*,*,#635,.F.);
#470=ORIENTED_EDGE('',*,*,#630,.F.);
#471=ORIENTED_EDGE('',*,*,#635,.T.);
#472=ORIENTED_EDGE('',*,*,#544,.F.);
#473=ORIENTED_EDGE('',*,*,#636,.F.);
#474=ORIENTED_EDGE('',*,*,#631,.F.);
#475=ORIENTED_EDGE('',*,*,#636,.T.);
#476=ORIENTED_EDGE('',*,*,#548,.F.);
#477=ORIENTED_EDGE('',*,*,#637,.F.);
#478=ORIENTED_EDGE('',*,*,#625,.F.);
#479=ORIENTED_EDGE('',*,*,#637,.T.);
#480=ORIENTED_EDGE('',*,*,#551,.F.);
#481=ORIENTED_EDGE('',*,*,#542,.F.);
#482=ORIENTED_EDGE('',*,*,#531,.F.);
#483=ORIENTED_EDGE('',*,*,#616,.F.);
#484=ORIENTED_EDGE('',*,*,#626,.F.);
#485=ORIENTED_EDGE('',*,*,#605,.T.);
#486=ORIENTED_EDGE('',*,*,#638,.T.);
#487=ORIENTED_EDGE('',*,*,#564,.F.);
#488=ORIENTED_EDGE('',*,*,#519,.F.);
#489=ORIENTED_EDGE('',*,*,#639,.T.);
#490=ORIENTED_EDGE('',*,*,#558,.F.);
#491=ORIENTED_EDGE('',*,*,#640,.F.);
#492=ORIENTED_EDGE('',*,*,#591,.F.);
#493=ORIENTED_EDGE('',*,*,#583,.T.);
#494=ORIENTED_EDGE('',*,*,#640,.T.);
#495=ORIENTED_EDGE('',*,*,#557,.T.);
#496=ORIENTED_EDGE('',*,*,#638,.F.);
#497=ORIENTED_EDGE('',*,*,#587,.T.);
#498=ORIENTED_EDGE('',*,*,#533,.T.);
#499=ORIENTED_EDGE('',*,*,#541,.T.);
#500=ORIENTED_EDGE('',*,*,#550,.T.);
#501=ORIENTED_EDGE('',*,*,#641,.F.);
#502=ORIENTED_EDGE('',*,*,#588,.T.);
#503=ORIENTED_EDGE('',*,*,#641,.T.);
#504=ORIENTED_EDGE('',*,*,#554,.T.);
#505=ORIENTED_EDGE('',*,*,#642,.F.);
#506=ORIENTED_EDGE('',*,*,#589,.T.);
#507=ORIENTED_EDGE('',*,*,#642,.T.);
#508=ORIENTED_EDGE('',*,*,#560,.T.);
#509=ORIENTED_EDGE('',*,*,#643,.F.);
#510=ORIENTED_EDGE('',*,*,#590,.T.);
#511=ORIENTED_EDGE('',*,*,#643,.T.);
#512=ORIENTED_EDGE('',*,*,#559,.T.);
#513=ORIENTED_EDGE('',*,*,#639,.F.);
#514=EDGE_CURVE('',#644,#644,#730,.T.);
#515=EDGE_CURVE('',#645,#645,#731,.T.);
#516=EDGE_CURVE('',#646,#646,#732,.T.);
#517=EDGE_CURVE('',#647,#647,#733,.T.);
#518=EDGE_CURVE('',#648,#649,#18,.T.);
#519=EDGE_CURVE('',#649,#650,#19,.T.);
#520=EDGE_CURVE('',#650,#651,#20,.T.);
#521=EDGE_CURVE('',#651,#652,#21,.T.);
#522=EDGE_CURVE('',#652,#653,#22,.T.);
#523=EDGE_CURVE('',#653,#654,#23,.T.);
#524=EDGE_CURVE('',#655,#654,#24,.T.);
#525=EDGE_CURVE('',#655,#656,#25,.T.);
#526=EDGE_CURVE('',#657,#656,#734,.T.);
#527=EDGE_CURVE('',#657,#658,#26,.T.);
#528=EDGE_CURVE('',#659,#658,#735,.T.);
#529=EDGE_CURVE('',#660,#659,#27,.T.);
#530=EDGE_CURVE('',#660,#661,#28,.T.);
#531=EDGE_CURVE('',#661,#662,#29,.T.);
#532=EDGE_CURVE('',#663,#662,#30,.T.);
#533=EDGE_CURVE('',#664,#663,#31,.T.);
#534=EDGE_CURVE('',#665,#664,#32,.T.);
#535=EDGE_CURVE('',#665,#666,#33,.T.);
#536=EDGE_CURVE('',#667,#666,#34,.T.);
#537=EDGE_CURVE('',#667,#668,#35,.T.);
#538=EDGE_CURVE('',#669,#668,#36,.T.);
#539=EDGE_CURVE('',#670,#669,#37,.T.);
#540=EDGE_CURVE('',#670,#648,#38,.T.);
#541=EDGE_CURVE('',#663,#671,#39,.T.);
#542=EDGE_CURVE('',#662,#671,#40,.T.);
#543=EDGE_CURVE('',#672,#673,#41,.T.);
#544=EDGE_CURVE('',#672,#674,#42,.T.);
#545=EDGE_CURVE('',#674,#675,#43,.T.);
#546=EDGE_CURVE('',#673,#675,#44,.T.);
#547=EDGE_CURVE('',#676,#677,#45,.T.);
#548=EDGE_CURVE('',#676,#672,#46,.T.);
#549=EDGE_CURVE('',#673,#677,#47,.T.);
#550=EDGE_CURVE('',#671,#678,#48,.T.);
#551=EDGE_CURVE('',#671,#676,#49,.T.);
#552=EDGE_CURVE('',#677,#679,#50,.T.);
#553=EDGE_CURVE('',#678,#679,#51,.T.);
#554=EDGE_CURVE('',#678,#680,#52,.T.);
#555=EDGE_CURVE('',#681,#679,#53,.T.);
#556=EDGE_CURVE('',#682,#681,#54,.T.);
#557=EDGE_CURVE('',#683,#682,#55,.T.);
#558=EDGE_CURVE('',#683,#684,#56,.T.);
#559=EDGE_CURVE('',#685,#684,#57,.T.);
#560=EDGE_CURVE('',#680,#685,#58,.T.);
#561=EDGE_CURVE('',#681,#686,#59,.T.);
#562=EDGE_CURVE('',#687,#686,#60,.T.);
#563=EDGE_CURVE('',#651,#687,#61,.T.);
#564=EDGE_CURVE('',#650,#682,#62,.T.);
#565=EDGE_CURVE('',#688,#686,#63,.T.);
#566=EDGE_CURVE('',#689,#688,#64,.T.);
#567=EDGE_CURVE('',#689,#687,#65,.T.);
#568=EDGE_CURVE('',#690,#691,#66,.T.);
#569=EDGE_CURVE('',#690,#653,#67,.T.);
#570=EDGE_CURVE('',#652,#689,#68,.T.);
#571=EDGE_CURVE('',#688,#691,#69,.T.);
#572=EDGE_CURVE('',#692,#693,#70,.T.);
#573=EDGE_CURVE('',#692,#690,#71,.T.);
#574=EDGE_CURVE('',#691,#693,#72,.T.);
#575=EDGE_CURVE('',#694,#695,#73,.T.);
#576=EDGE_CURVE('',#694,#692,#74,.T.);
#577=EDGE_CURVE('',#695,#693,#75,.T.);
#578=EDGE_CURVE('',#696,#697,#76,.T.);
#579=EDGE_CURVE('',#696,#694,#77,.T.);
#580=EDGE_CURVE('',#697,#695,#78,.T.);
#581=EDGE_CURVE('',#674,#696,#79,.T.);
#582=EDGE_CURVE('',#675,#697,#80,.T.);
#583=EDGE_CURVE('',#698,#699,#81,.T.);
#584=EDGE_CURVE('',#698,#700,#82,.T.);
#585=EDGE_CURVE('',#701,#700,#83,.T.);
#586=EDGE_CURVE('',#665,#701,#84,.T.);
#587=EDGE_CURVE('',#702,#664,#85,.T.);
#588=EDGE_CURVE('',#703,#702,#86,.T.);
#589=EDGE_CURVE('',#704,#703,#87,.T.);
#590=EDGE_CURVE('',#705,#704,#88,.T.);
#591=EDGE_CURVE('',#705,#699,#89,.T.);
#592=EDGE_CURVE('',#701,#706,#90,.T.);
#593=EDGE_CURVE('',#666,#706,#91,.T.);
#594=EDGE_CURVE('',#707,#706,#92,.T.);
#595=EDGE_CURVE('',#667,#707,#93,.T.);
#596=EDGE_CURVE('',#707,#708,#94,.T.);
#597=EDGE_CURVE('',#668,#708,#95,.T.);
#598=EDGE_CURVE('',#709,#708,#96,.T.);
#599=EDGE_CURVE('',#669,#709,#97,.T.);
#600=EDGE_CURVE('',#710,#709,#98,.T.);
#601=EDGE_CURVE('',#670,#710,#99,.T.);
#602=EDGE_CURVE('',#710,#711,#100,.T.);
#603=EDGE_CURVE('',#648,#711,#101,.T.);
#604=EDGE_CURVE('',#711,#700,#102,.T.);
#605=EDGE_CURVE('',#649,#698,#103,.T.);
#606=EDGE_CURVE('',#712,#712,#736,.T.);
#607=EDGE_CURVE('',#713,#713,#737,.T.);
#608=EDGE_CURVE('',#714,#714,#738,.T.);
#609=EDGE_CURVE('',#715,#715,#739,.T.);
#610=EDGE_CURVE('',#716,#655,#104,.T.);
#611=EDGE_CURVE('',#716,#717,#105,.T.);
#612=EDGE_CURVE('',#717,#656,#106,.T.);
#613=EDGE_CURVE('',#654,#718,#107,.T.);
#614=EDGE_CURVE('',#716,#718,#108,.T.);
#615=EDGE_CURVE('',#719,#720,#109,.T.);
#616=EDGE_CURVE('',#720,#661,#110,.T.);
#617=EDGE_CURVE('',#719,#660,#111,.T.);
#618=EDGE_CURVE('',#721,#659,#112,.T.);
#619=EDGE_CURVE('',#719,#721,#113,.T.);
#620=EDGE_CURVE('',#722,#658,#114,.T.);
#621=EDGE_CURVE('',#721,#722,#740,.T.);
#622=EDGE_CURVE('',#723,#657,#115,.T.);
#623=EDGE_CURVE('',#723,#722,#116,.T.);
#624=EDGE_CURVE('',#723,#717,#741,.T.);
#625=EDGE_CURVE('',#724,#725,#117,.T.);
#626=EDGE_CURVE('',#725,#720,#118,.T.);
#627=EDGE_CURVE('',#718,#726,#119,.T.);
#628=EDGE_CURVE('',#726,#727,#120,.T.);
#629=EDGE_CURVE('',#727,#728,#121,.T.);
#630=EDGE_CURVE('',#728,#729,#122,.T.);
#631=EDGE_CURVE('',#729,#724,#123,.T.);
#632=EDGE_CURVE('',#726,#692,#124,.T.);
#633=EDGE_CURVE('',#727,#694,#125,.F.);
#634=EDGE_CURVE('',#728,#696,#126,.F.);
#635=EDGE_CURVE('',#729,#674,#127,.F.);
#636=EDGE_CURVE('',#724,#672,#128,.T.);
#637=EDGE_CURVE('',#725,#676,#129,.F.);
#638=EDGE_CURVE('',#698,#682,#130,.T.);
#639=EDGE_CURVE('',#705,#684,#131,.T.);
#640=EDGE_CURVE('',#699,#683,#132,.T.);
#641=EDGE_CURVE('',#702,#678,#133,.T.);
#642=EDGE_CURVE('',#703,#680,#134,.T.);
#643=EDGE_CURVE('',#704,#685,#135,.T.);
#644=VERTEX_POINT('',#1302);
#645=VERTEX_POINT('',#1304);
#646=VERTEX_POINT('',#1306);
#647=VERTEX_POINT('',#1308);
#648=VERTEX_POINT('',#1310);
#649=VERTEX_POINT('',#1311);
#650=VERTEX_POINT('',#1313);
#651=VERTEX_POINT('',#1315);
#652=VERTEX_POINT('',#1317);
#653=VERTEX_POINT('',#1319);
#654=VERTEX_POINT('',#1321);
#655=VERTEX_POINT('',#1323);
#656=VERTEX_POINT('',#1325);
#657=VERTEX_POINT('',#1327);
#658=VERTEX_POINT('',#1329);
#659=VERTEX_POINT('',#1331);
#660=VERTEX_POINT('',#1333);
#661=VERTEX_POINT('',#1335);
#662=VERTEX_POINT('',#1337);
#663=VERTEX_POINT('',#1339);
#664=VERTEX_POINT('',#1341);
#665=VERTEX_POINT('',#1343);
#666=VERTEX_POINT('',#1345);
#667=VERTEX_POINT('',#1347);
#668=VERTEX_POINT('',#1349);
#669=VERTEX_POINT('',#1351);
#670=VERTEX_POINT('',#1353);
#671=VERTEX_POINT('',#1357);
#672=VERTEX_POINT('',#1361);
#673=VERTEX_POINT('',#1362);
#674=VERTEX_POINT('',#1364);
#675=VERTEX_POINT('',#1366);
#676=VERTEX_POINT('',#1370);
#677=VERTEX_POINT('',#1371);
#678=VERTEX_POINT('',#1376);
#679=VERTEX_POINT('',#1379);
#680=VERTEX_POINT('',#1383);
#681=VERTEX_POINT('',#1385);
#682=VERTEX_POINT('',#1387);
#683=VERTEX_POINT('',#1389);
#684=VERTEX_POINT('',#1391);
#685=VERTEX_POINT('',#1393);
#686=VERTEX_POINT('',#1397);
#687=VERTEX_POINT('',#1399);
#688=VERTEX_POINT('',#1404);
#689=VERTEX_POINT('',#1406);
#690=VERTEX_POINT('',#1410);
#691=VERTEX_POINT('',#1411);
#692=VERTEX_POINT('',#1417);
#693=VERTEX_POINT('',#1418);
#694=VERTEX_POINT('',#1423);
#695=VERTEX_POINT('',#1424);
#696=VERTEX_POINT('',#1429);
#697=VERTEX_POINT('',#1430);
#698=VERTEX_POINT('',#1439);
#699=VERTEX_POINT('',#1440);
#700=VERTEX_POINT('',#1442);
#701=VERTEX_POINT('',#1444);
#702=VERTEX_POINT('',#1447);
#703=VERTEX_POINT('',#1449);
#704=VERTEX_POINT('',#1451);
#705=VERTEX_POINT('',#1453);
#706=VERTEX_POINT('',#1457);
#707=VERTEX_POINT('',#1461);
#708=VERTEX_POINT('',#1465);
#709=VERTEX_POINT('',#1469);
#710=VERTEX_POINT('',#1473);
#711=VERTEX_POINT('',#1477);
#712=VERTEX_POINT('',#1486);
#713=VERTEX_POINT('',#1490);
#714=VERTEX_POINT('',#1494);
#715=VERTEX_POINT('',#1498);
#716=VERTEX_POINT('',#1502);
#717=VERTEX_POINT('',#1504);
#718=VERTEX_POINT('',#1508);
#719=VERTEX_POINT('',#1512);
#720=VERTEX_POINT('',#1513);
#721=VERTEX_POINT('',#1518);
#722=VERTEX_POINT('',#1522);
#723=VERTEX_POINT('',#1526);
#724=VERTEX_POINT('',#1532);
#725=VERTEX_POINT('',#1533);
#726=VERTEX_POINT('',#1536);
#727=VERTEX_POINT('',#1538);
#728=VERTEX_POINT('',#1540);
#729=VERTEX_POINT('',#1542);
#730=CIRCLE('',#982,2.35);
#731=CIRCLE('',#983,2.35);
#732=CIRCLE('',#984,2.35);
#733=CIRCLE('',#985,2.35);
#734=CIRCLE('',#986,6.8);
#735=CIRCLE('',#987,6.81040764008564);
#736=CIRCLE('',#1012,2.35);
#737=CIRCLE('',#1015,2.35);
#738=CIRCLE('',#1018,2.35);
#739=CIRCLE('',#1021,2.35);
#740=CIRCLE('',#1028,6.81040764008564);
#741=CIRCLE('',#1031,6.8);
#742=EDGE_LOOP('',(#254));
#743=EDGE_LOOP('',(#255));
#744=EDGE_LOOP('',(#256));
#745=EDGE_LOOP('',(#257));
#746=EDGE_LOOP('',(#258,#259,#260,#261,#262,#263,#264,#265,#266,#267,#268,
#269,#270,#271,#272,#273,#274,#275,#276,#277,#278,#279,#280));
#747=EDGE_LOOP('',(#281,#282,#283));
#748=EDGE_LOOP('',(#284,#285,#286,#287));
#749=EDGE_LOOP('',(#288,#289,#290,#291));
#750=EDGE_LOOP('',(#292,#293,#294,#295,#296));
#751=EDGE_LOOP('',(#297,#298,#299,#300,#301,#302,#303,#304));
#752=EDGE_LOOP('',(#305,#306,#307,#308,#309,#310));
#753=EDGE_LOOP('',(#311,#312,#313,#314));
#754=EDGE_LOOP('',(#315,#316,#317,#318,#319,#320));
#755=EDGE_LOOP('',(#321,#322,#323,#324));
#756=EDGE_LOOP('',(#325,#326,#327,#328));
#757=EDGE_LOOP('',(#329,#330,#331,#332));
#758=EDGE_LOOP('',(#333,#334,#335,#336));
#759=EDGE_LOOP('',(#337,#338,#339,#340,#341,#342,#343,#344,#345,#346,#347));
#760=EDGE_LOOP('',(#348,#349,#350,#351,#352,#353,#354,#355,#356,#357));
#761=EDGE_LOOP('',(#358,#359,#360,#361));
#762=EDGE_LOOP('',(#362,#363,#364,#365));
#763=EDGE_LOOP('',(#366,#367,#368,#369));
#764=EDGE_LOOP('',(#370,#371,#372,#373));
#765=EDGE_LOOP('',(#374,#375,#376,#377));
#766=EDGE_LOOP('',(#378,#379,#380,#381));
#767=EDGE_LOOP('',(#382,#383,#384,#385));
#768=EDGE_LOOP('',(#386,#387,#388,#389,#390));
#769=EDGE_LOOP('',(#391,#392,#393,#394,#395,#396,#397,#398));
#770=EDGE_LOOP('',(#399));
#771=EDGE_LOOP('',(#400));
#772=EDGE_LOOP('',(#401));
#773=EDGE_LOOP('',(#402));
#774=EDGE_LOOP('',(#403));
#775=EDGE_LOOP('',(#404));
#776=EDGE_LOOP('',(#405));
#777=EDGE_LOOP('',(#406));
#778=EDGE_LOOP('',(#407));
#779=EDGE_LOOP('',(#408));
#780=EDGE_LOOP('',(#409));
#781=EDGE_LOOP('',(#410));
#782=EDGE_LOOP('',(#411,#412,#413,#414));
#783=EDGE_LOOP('',(#415,#416,#417,#418));
#784=EDGE_LOOP('',(#419,#420,#421,#422));
#785=EDGE_LOOP('',(#423,#424,#425,#426));
#786=EDGE_LOOP('',(#427,#428,#429,#430));
#787=EDGE_LOOP('',(#431,#432,#433,#434));
#788=EDGE_LOOP('',(#435,#436,#437,#438));
#789=EDGE_LOOP('',(#439,#440,#441,#442,#443,#444,#445,#446,#447,#448,#449,
#450,#451,#452));
#790=EDGE_LOOP('',(#453,#454,#455,#456,#457,#458));
#791=EDGE_LOOP('',(#459,#460,#461,#462));
#792=EDGE_LOOP('',(#463,#464,#465,#466));
#793=EDGE_LOOP('',(#467,#468,#469,#470));
#794=EDGE_LOOP('',(#471,#472,#473,#474));
#795=EDGE_LOOP('',(#475,#476,#477,#478));
#796=EDGE_LOOP('',(#479,#480,#481,#482,#483,#484));
#797=EDGE_LOOP('',(#485,#486,#487,#488));
#798=EDGE_LOOP('',(#489,#490,#491,#492));
#799=EDGE_LOOP('',(#493,#494,#495,#496));
#800=EDGE_LOOP('',(#497,#498,#499,#500,#501));
#801=EDGE_LOOP('',(#502,#503,#504,#505));
#802=EDGE_LOOP('',(#506,#507,#508,#509));
#803=EDGE_LOOP('',(#510,#511,#512,#513));
#804=FACE_BOUND('',#742,.T.);
#805=FACE_BOUND('',#743,.T.);
#806=FACE_BOUND('',#744,.T.);
#807=FACE_BOUND('',#745,.T.);
#808=FACE_BOUND('',#746,.T.);
#809=FACE_BOUND('',#747,.T.);
#810=FACE_BOUND('',#748,.T.);
#811=FACE_BOUND('',#749,.T.);
#812=FACE_BOUND('',#750,.T.);
#813=FACE_BOUND('',#751,.T.);
#814=FACE_BOUND('',#752,.T.);
#815=FACE_BOUND('',#753,.T.);
#816=FACE_BOUND('',#754,.T.);
#817=FACE_BOUND('',#755,.T.);
#818=FACE_BOUND('',#756,.T.);
#819=FACE_BOUND('',#757,.T.);
#820=FACE_BOUND('',#758,.T.);
#821=FACE_BOUND('',#759,.T.);
#822=FACE_BOUND('',#760,.T.);
#823=FACE_BOUND('',#761,.T.);
#824=FACE_BOUND('',#762,.T.);
#825=FACE_BOUND('',#763,.T.);
#826=FACE_BOUND('',#764,.T.);
#827=FACE_BOUND('',#765,.T.);
#828=FACE_BOUND('',#766,.T.);
#829=FACE_BOUND('',#767,.T.);
#830=FACE_BOUND('',#768,.T.);
#831=FACE_BOUND('',#769,.T.);
#832=FACE_BOUND('',#770,.T.);
#833=FACE_BOUND('',#771,.T.);
#834=FACE_BOUND('',#772,.T.);
#835=FACE_BOUND('',#773,.T.);
#836=FACE_BOUND('',#774,.T.);
#837=FACE_BOUND('',#775,.T.);
#838=FACE_BOUND('',#776,.T.);
#839=FACE_BOUND('',#777,.T.);
#840=FACE_BOUND('',#778,.T.);
#841=FACE_BOUND('',#779,.T.);
#842=FACE_BOUND('',#780,.T.);
#843=FACE_BOUND('',#781,.T.);
#844=FACE_BOUND('',#782,.T.);
#845=FACE_BOUND('',#783,.T.);
#846=FACE_BOUND('',#784,.T.);
#847=FACE_BOUND('',#785,.T.);
#848=FACE_BOUND('',#786,.T.);
#849=FACE_BOUND('',#787,.T.);
#850=FACE_BOUND('',#788,.T.);
#851=FACE_BOUND('',#789,.T.);
#852=FACE_BOUND('',#790,.T.);
#853=FACE_BOUND('',#791,.T.);
#854=FACE_BOUND('',#792,.T.);
#855=FACE_BOUND('',#793,.T.);
#856=FACE_BOUND('',#794,.T.);
#857=FACE_BOUND('',#795,.T.);
#858=FACE_BOUND('',#796,.T.);
#859=FACE_BOUND('',#797,.T.);
#860=FACE_BOUND('',#798,.T.);
#861=FACE_BOUND('',#799,.T.);
#862=FACE_BOUND('',#800,.T.);
#863=FACE_BOUND('',#801,.T.);
#864=FACE_BOUND('',#802,.T.);
#865=FACE_BOUND('',#803,.T.);
#866=PLANE('',#981);
#867=PLANE('',#988);
#868=PLANE('',#989);
#869=PLANE('',#990);
#870=PLANE('',#991);
#871=PLANE('',#992);
#872=PLANE('',#993);
#873=PLANE('',#994);
#874=PLANE('',#995);
#875=PLANE('',#996);
#876=PLANE('',#997);
#877=PLANE('',#998);
#878=PLANE('',#999);
#879=PLANE('',#1000);
#880=PLANE('',#1001);
#881=PLANE('',#1002);
#882=PLANE('',#1003);
#883=PLANE('',#1004);
#884=PLANE('',#1005);
#885=PLANE('',#1006);
#886=PLANE('',#1007);
#887=PLANE('',#1008);
#888=PLANE('',#1009);
#889=PLANE('',#1010);
#890=PLANE('',#1011);
#891=PLANE('',#1014);
#892=PLANE('',#1017);
#893=PLANE('',#1020);
#894=PLANE('',#1023);
#895=PLANE('',#1024);
#896=PLANE('',#1025);
#897=PLANE('',#1026);
#898=PLANE('',#1029);
#899=PLANE('',#1032);
#900=PLANE('',#1033);
#901=PLANE('',#1034);
#902=PLANE('',#1035);
#903=PLANE('',#1036);
#904=PLANE('',#1037);
#905=PLANE('',#1038);
#906=PLANE('',#1039);
#907=PLANE('',#1040);
#908=PLANE('',#1041);
#909=PLANE('',#1042);
#910=PLANE('',#1043);
#911=PLANE('',#1044);
#912=PLANE('',#1045);
#913=PLANE('',#1046);
#914=ADVANCED_FACE('',(#804,#805,#806,#807,#808),#866,.T.);
#915=ADVANCED_FACE('',(#809),#867,.T.);
#916=ADVANCED_FACE('',(#810),#868,.T.);
#917=ADVANCED_FACE('',(#811),#869,.F.);
#918=ADVANCED_FACE('',(#812),#870,.F.);
#919=ADVANCED_FACE('',(#813),#871,.T.);
#920=ADVANCED_FACE('',(#814),#872,.F.);
#921=ADVANCED_FACE('',(#815),#873,.T.);
#922=ADVANCED_FACE('',(#816),#874,.F.);
#923=ADVANCED_FACE('',(#817),#875,.F.);
#924=ADVANCED_FACE('',(#818),#876,.T.);
#925=ADVANCED_FACE('',(#819),#877,.T.);
#926=ADVANCED_FACE('',(#820),#878,.T.);
#927=ADVANCED_FACE('',(#821),#879,.F.);
#928=ADVANCED_FACE('',(#822),#880,.T.);
#929=ADVANCED_FACE('',(#823),#881,.F.);
#930=ADVANCED_FACE('',(#824),#882,.T.);
#931=ADVANCED_FACE('',(#825),#883,.F.);
#932=ADVANCED_FACE('',(#826),#884,.T.);
#933=ADVANCED_FACE('',(#827),#885,.T.);
#934=ADVANCED_FACE('',(#828),#886,.F.);
#935=ADVANCED_FACE('',(#829),#887,.F.);
#936=ADVANCED_FACE('',(#830),#888,.F.);
#937=ADVANCED_FACE('',(#831),#889,.T.);
#938=ADVANCED_FACE('',(#832),#890,.T.);
#939=ADVANCED_FACE('',(#833,#834),#12,.F.);
#940=ADVANCED_FACE('',(#835),#891,.T.);
#941=ADVANCED_FACE('',(#836,#837),#13,.F.);
#942=ADVANCED_FACE('',(#838),#892,.T.);
#943=ADVANCED_FACE('',(#839,#840),#14,.F.);
#944=ADVANCED_FACE('',(#841),#893,.T.);
#945=ADVANCED_FACE('',(#842,#843),#15,.F.);
#946=ADVANCED_FACE('',(#844),#894,.T.);
#947=ADVANCED_FACE('',(#845),#895,.F.);
#948=ADVANCED_FACE('',(#846),#896,.T.);
#949=ADVANCED_FACE('',(#847),#897,.F.);
#950=ADVANCED_FACE('',(#848),#16,.F.);
#951=ADVANCED_FACE('',(#849),#898,.T.);
#952=ADVANCED_FACE('',(#850),#17,.F.);
#953=ADVANCED_FACE('',(#851),#899,.T.);
#954=ADVANCED_FACE('',(#852),#900,.T.);
#955=ADVANCED_FACE('',(#853),#901,.F.);
#956=ADVANCED_FACE('',(#854),#902,.F.);
#957=ADVANCED_FACE('',(#855),#903,.F.);
#958=ADVANCED_FACE('',(#856),#904,.F.);
#959=ADVANCED_FACE('',(#857),#905,.T.);
#960=ADVANCED_FACE('',(#858),#906,.T.);
#961=ADVANCED_FACE('',(#859),#907,.T.);
#962=ADVANCED_FACE('',(#860),#908,.T.);
#963=ADVANCED_FACE('',(#861),#909,.F.);
#964=ADVANCED_FACE('',(#862),#910,.F.);
#965=ADVANCED_FACE('',(#863),#911,.F.);
#966=ADVANCED_FACE('',(#864),#912,.F.);
#967=ADVANCED_FACE('',(#865),#913,.F.);
#968=CLOSED_SHELL('',(#914,#915,#916,#917,#918,#919,#920,#921,#922,#923,
#924,#925,#926,#927,#928,#929,#930,#931,#932,#933,#934,#935,#936,#937,#938,
#939,#940,#941,#942,#943,#944,#945,#946,#947,#948,#949,#950,#951,#952,#953,
#954,#955,#956,#957,#958,#959,#960,#961,#962,#963,#964,#965,#966,#967));
#969=STYLED_ITEM('',(#970),#977);
#970=PRESENTATION_STYLE_ASSIGNMENT((#971));
#971=SURFACE_STYLE_USAGE(.BOTH.,#972);
#972=SURFACE_SIDE_STYLE('',(#973));
#973=SURFACE_STYLE_FILL_AREA(#974);
#974=FILL_AREA_STYLE('',(#975));
#975=FILL_AREA_STYLE_COLOUR('',#976);
#976=COLOUR_RGB('',0.615686274509804,0.811764705882353,0.929411764705882);
#977=MANIFOLD_SOLID_BREP('case',#968);
#978=SHAPE_DEFINITION_REPRESENTATION(#1576,#979);
#979=SHAPE_REPRESENTATION('case',(#980),#1571);
#980=AXIS2_PLACEMENT_3D('',#1299,#1047,#1048);
#981=AXIS2_PLACEMENT_3D('',#1300,#1049,#1050);
#982=AXIS2_PLACEMENT_3D('',#1301,#1051,#1052);
#983=AXIS2_PLACEMENT_3D('',#1303,#1053,#1054);
#984=AXIS2_PLACEMENT_3D('',#1305,#1055,#1056);
#985=AXIS2_PLACEMENT_3D('',#1307,#1057,#1058);
#986=AXIS2_PLACEMENT_3D('',#1326,#1067,#1068);
#987=AXIS2_PLACEMENT_3D('',#1330,#1070,#1071);
#988=AXIS2_PLACEMENT_3D('',#1355,#1084,#1085);
#989=AXIS2_PLACEMENT_3D('',#1359,#1088,#1089);
#990=AXIS2_PLACEMENT_3D('',#1368,#1094,#1095);
#991=AXIS2_PLACEMENT_3D('',#1374,#1099,#1100);
#992=AXIS2_PLACEMENT_3D('',#1381,#1105,#1106);
#993=AXIS2_PLACEMENT_3D('',#1395,#1114,#1115);
#994=AXIS2_PLACEMENT_3D('',#1402,#1120,#1121);
#995=AXIS2_PLACEMENT_3D('',#1408,#1125,#1126);
#996=AXIS2_PLACEMENT_3D('',#1415,#1131,#1132);
#997=AXIS2_PLACEMENT_3D('',#1421,#1136,#1137);
#998=AXIS2_PLACEMENT_3D('',#1427,#1141,#1142);
#999=AXIS2_PLACEMENT_3D('',#1433,#1146,#1147);
#1000=AXIS2_PLACEMENT_3D('',#1436,#1150,#1151);
#1001=AXIS2_PLACEMENT_3D('',#1437,#1152,#1153);
#1002=AXIS2_PLACEMENT_3D('',#1455,#1163,#1164);
#1003=AXIS2_PLACEMENT_3D('',#1459,#1167,#1168);
#1004=AXIS2_PLACEMENT_3D('',#1463,#1171,#1172);
#1005=AXIS2_PLACEMENT_3D('',#1467,#1175,#1176);
#1006=AXIS2_PLACEMENT_3D('',#1471,#1179,#1180);
#1007=AXIS2_PLACEMENT_3D('',#1475,#1183,#1184);
#1008=AXIS2_PLACEMENT_3D('',#1479,#1187,#1188);
#1009=AXIS2_PLACEMENT_3D('',#1480,#1189,#1190);
#1010=AXIS2_PLACEMENT_3D('',#1483,#1193,#1194);
#1011=AXIS2_PLACEMENT_3D('',#1484,#1195,#1196);
#1012=AXIS2_PLACEMENT_3D('',#1485,#1197,#1198);
#1013=AXIS2_PLACEMENT_3D('',#1487,#1199,#1200);
#1014=AXIS2_PLACEMENT_3D('',#1488,#1201,#1202);
#1015=AXIS2_PLACEMENT_3D('',#1489,#1203,#1204);
#1016=AXIS2_PLACEMENT_3D('',#1491,#1205,#1206);
#1017=AXIS2_PLACEMENT_3D('',#1492,#1207,#1208);
#1018=AXIS2_PLACEMENT_3D('',#1493,#1209,#1210);
#1019=AXIS2_PLACEMENT_3D('',#1495,#1211,#1212);
#1020=AXIS2_PLACEMENT_3D('',#1496,#1213,#1214);
#1021=AXIS2_PLACEMENT_3D('',#1497,#1215,#1216);
#1022=AXIS2_PLACEMENT_3D('',#1499,#1217,#1218);
#1023=AXIS2_PLACEMENT_3D('',#1500,#1219,#1220);
#1024=AXIS2_PLACEMENT_3D('',#1506,#1224,#1225);
#1025=AXIS2_PLACEMENT_3D('',#1510,#1228,#1229);
#1026=AXIS2_PLACEMENT_3D('',#1516,#1233,#1234);
#1027=AXIS2_PLACEMENT_3D('',#1520,#1237,#1238);
#1028=AXIS2_PLACEMENT_3D('',#1523,#1240,#1241);
#1029=AXIS2_PLACEMENT_3D('',#1524,#1242,#1243);
#1030=AXIS2_PLACEMENT_3D('',#1528,#1246,#1247);
#1031=AXIS2_PLACEMENT_3D('',#1529,#1248,#1249);
#1032=AXIS2_PLACEMENT_3D('',#1530,#1250,#1251);
#1033=AXIS2_PLACEMENT_3D('',#1544,#1259,#1260);
#1034=AXIS2_PLACEMENT_3D('',#1546,#1262,#1263);
#1035=AXIS2_PLACEMENT_3D('',#1548,#1265,#1266);
#1036=AXIS2_PLACEMENT_3D('',#1550,#1268,#1269);
#1037=AXIS2_PLACEMENT_3D('',#1552,#1271,#1272);
#1038=AXIS2_PLACEMENT_3D('',#1554,#1274,#1275);
#1039=AXIS2_PLACEMENT_3D('',#1556,#1277,#1278);
#1040=AXIS2_PLACEMENT_3D('',#1557,#1279,#1280);
#1041=AXIS2_PLACEMENT_3D('',#1559,#1282,#1283);
#1042=AXIS2_PLACEMENT_3D('',#1562,#1286,#1287);
#1043=AXIS2_PLACEMENT_3D('',#1563,#1288,#1289);
#1044=AXIS2_PLACEMENT_3D('',#1565,#1291,#1292);
#1045=AXIS2_PLACEMENT_3D('',#1567,#1294,#1295);
#1046=AXIS2_PLACEMENT_3D('',#1569,#1297,#1298);
#1047=DIRECTION('',(0.,0.,1.));
#1048=DIRECTION('',(1.,0.,0.));
#1049=DIRECTION('',(0.,1.,0.));
#1050=DIRECTION('',(1.,0.,0.));
#1051=DIRECTION('',(0.,-1.,0.));
#1052=DIRECTION('',(-1.,0.,0.));
#1053=DIRECTION('',(0.,-1.,0.));
#1054=DIRECTION('',(-1.,0.,0.));
#1055=DIRECTION('',(0.,-1.,0.));
#1056=DIRECTION('',(-1.,0.,0.));
#1057=DIRECTION('',(0.,-1.,0.));
#1058=DIRECTION('',(-1.,0.,0.));
#1059=DIRECTION('',(-0.707106781186537,0.,-0.707106781186559));
#1060=DIRECTION('',(-1.,0.,0.));
#1061=DIRECTION('',(0.287347885566346,0.,0.957826285221151));
#1062=DIRECTION('',(0.980588215690195,0.,0.196078431372549));
#1063=DIRECTION('',(1.,0.,-6.93889390390723E-17));
#1064=DIRECTION('',(0.707106781186548,0.,-0.707106781186548));
#1065=DIRECTION('',(0.0196502676865768,0.,0.999806914848985));
#1066=DIRECTION('',(-1.90819582357449E-16,0.,-1.));
#1067=DIRECTION('',(0.,-1.,0.));
#1068=DIRECTION('',(1.,0.,0.));
#1069=DIRECTION('',(-1.,0.,2.77584646167195E-16));
#1070=DIRECTION('',(0.,-1.,0.));
#1071=DIRECTION('',(1.,0.,0.));
#1072=DIRECTION('',(0.,0.,-1.));
#1073=DIRECTION('',(0.101830105935862,0.,0.994801804142459));
#1074=DIRECTION('',(0.505787547055815,0.,0.862658076669582));
#1075=DIRECTION('',(0.,0.,-1.));
#1076=DIRECTION('',(-1.,0.,0.));
#1077=DIRECTION('',(0.,0.,1.));
#1078=DIRECTION('',(0.707106781186548,0.,-0.707106781186548));
#1079=DIRECTION('',(-1.,0.,0.));
#1080=DIRECTION('',(0.707106781186549,0.,0.707106781186547));
#1081=DIRECTION('',(0.,0.,-1.));
#1082=DIRECTION('',(0.707106781186544,0.,-0.707106781186552));
#1083=DIRECTION('',(-1.,0.,0.));
#1084=DIRECTION('',(-1.,0.,0.));
#1085=DIRECTION('',(0.,1.,0.));
#1086=DIRECTION('',(0.,-1.,0.));
#1087=DIRECTION('',(0.,-0.451340446776987,0.892351837059324));
#1088=DIRECTION('',(-0.707106781186548,0.,-0.707106781186547));
#1089=DIRECTION('',(-0.707106781186547,0.,0.707106781186548));
#1090=DIRECTION('',(0.,-1.,0.));
#1091=DIRECTION('',(0.707106781186547,0.,-0.707106781186548));
#1092=DIRECTION('',(0.,-1.,0.));
#1093=DIRECTION('',(0.707106781186547,0.,-0.707106781186548));
#1094=DIRECTION('',(1.,0.,0.));
#1095=DIRECTION('',(0.,-1.,0.));
#1096=DIRECTION('',(0.,-1.,0.));
#1097=DIRECTION('',(0.,0.,-1.));
#1098=DIRECTION('',(0.,0.,1.));
#1099=DIRECTION('',(0.862658076669582,0.,-0.505787547055815));
#1100=DIRECTION('',(-0.505787547055815,0.,-0.862658076669582));
#1101=DIRECTION('',(0.,-1.,0.));
#1102=DIRECTION('',(-0.505787547055815,0.,-0.862658076669582));
#1103=DIRECTION('',(0.505787547055815,0.,0.862658076669582));
#1104=DIRECTION('',(0.,-1.,0.));
#1105=DIRECTION('',(-1.,0.,0.));
#1106=DIRECTION('',(0.,1.,0.));
#1107=DIRECTION('',(0.,0.,1.));
#1108=DIRECTION('',(0.,0.,-1.));
#1109=DIRECTION('',(0.,-1.,0.));
#1110=DIRECTION('',(0.,0.,1.));
#1111=DIRECTION('',(0.,-1.,0.));
#1112=DIRECTION('',(0.,0.,1.));
#1113=DIRECTION('',(0.,-1.,0.));
#1114=DIRECTION('',(0.957826285221151,0.,-0.287347885566346));
#1115=DIRECTION('',(-0.287347885566346,0.,-0.957826285221151));
#1116=DIRECTION('',(0.287347885566346,0.,0.957826285221151));
#1117=DIRECTION('',(0.,-1.,0.));
#1118=DIRECTION('',(0.,-1.,0.));
#1119=DIRECTION('',(0.,-1.,0.));
#1120=DIRECTION('',(-0.196116135138184,0.,0.98058067569092));
#1121=DIRECTION('',(0.98058067569092,0.,0.196116135138184));
#1122=DIRECTION('',(-0.98058067569092,0.,-0.196116135138184));
#1123=DIRECTION('',(0.,-1.,0.));
#1124=DIRECTION('',(-0.98058067569092,0.,-0.196116135138184));
#1125=DIRECTION('',(-6.93889390390723E-17,0.,-1.));
#1126=DIRECTION('',(-1.,0.,6.93889390390723E-17));
#1127=DIRECTION('',(0.,-1.,0.));
#1128=DIRECTION('',(-0.816496580927726,0.577350269189625,5.6655831479605E-17));
#1129=DIRECTION('',(0.,-1.,0.));
#1130=DIRECTION('',(1.,0.,-6.93889390390723E-17));
#1131=DIRECTION('',(-0.707106781186548,0.,-0.707106781186548));
#1132=DIRECTION('',(-0.707106781186548,0.,0.707106781186548));
#1133=DIRECTION('',(0.,-1.,0.));
#1134=DIRECTION('',(-0.707106781186548,0.,0.707106781186548));
#1135=DIRECTION('',(0.707106781186548,0.,-0.707106781186548));
#1136=DIRECTION('',(1.,0.,0.));
#1137=DIRECTION('',(0.,-1.,0.));
#1138=DIRECTION('',(0.,-1.,0.));
#1139=DIRECTION('',(0.,0.,1.));
#1140=DIRECTION('',(0.,0.,1.));
#1141=DIRECTION('',(0.707106781186547,0.,-0.707106781186548));
#1142=DIRECTION('',(-0.707106781186548,0.,-0.707106781186547));
#1143=DIRECTION('',(0.,-1.,0.));
#1144=DIRECTION('',(0.707106781186548,0.,0.707106781186547));
#1145=DIRECTION('',(0.707106781186548,0.,0.707106781186547));
#1146=DIRECTION('',(0.,0.,-1.));
#1147=DIRECTION('',(0.,1.,0.));
#1148=DIRECTION('',(1.,0.,0.));
#1149=DIRECTION('',(1.,0.,0.));
#1150=DIRECTION('',(0.,1.,0.));
#1151=DIRECTION('',(1.,0.,0.));
#1152=DIRECTION('',(1.,0.,0.));
#1153=DIRECTION('',(0.,-1.,0.));
#1154=DIRECTION('',(0.,0.,-1.));
#1155=DIRECTION('',(0.,-1.,0.));
#1156=DIRECTION('',(0.,0.,1.));
#1157=DIRECTION('',(0.,-1.,0.));
#1158=DIRECTION('',(0.,1.,0.));
#1159=DIRECTION('',(0.,0.,-1.));
#1160=DIRECTION('',(0.,1.,0.));
#1161=DIRECTION('',(0.,0.,-1.));
#1162=DIRECTION('',(0.,1.,0.));
#1163=DIRECTION('',(-0.707106781186548,0.,-0.707106781186548));
#1164=DIRECTION('',(-0.707106781186548,0.,0.707106781186548));
#1165=DIRECTION('',(0.707106781186548,0.,-0.707106781186548));
#1166=DIRECTION('',(0.,-1.,0.));
#1167=DIRECTION('',(0.,0.,1.));
#1168=DIRECTION('',(0.,-1.,0.));
#1169=DIRECTION('',(-1.,0.,0.));
#1170=DIRECTION('',(0.,-1.,0.));
#1171=DIRECTION('',(0.707106781186547,0.,-0.707106781186549));
#1172=DIRECTION('',(-0.707106781186549,0.,-0.707106781186547));
#1173=DIRECTION('',(0.707106781186549,0.,0.707106781186547));
#1174=DIRECTION('',(0.,-1.,0.));
#1175=DIRECTION('',(-1.,0.,0.));
#1176=DIRECTION('',(0.,1.,0.));
#1177=DIRECTION('',(0.,0.,-1.));
#1178=DIRECTION('',(0.,-1.,0.));
#1179=DIRECTION('',(-0.707106781186552,0.,-0.707106781186544));
#1180=DIRECTION('',(-0.707106781186544,0.,0.707106781186552));
#1181=DIRECTION('',(0.707106781186544,0.,-0.707106781186552));
#1182=DIRECTION('',(0.,-1.,0.));
#1183=DIRECTION('',(0.,0.,1.));
#1184=DIRECTION('',(0.,-1.,0.));
#1185=DIRECTION('',(-1.,0.,0.));
#1186=DIRECTION('',(0.,-1.,0.));
#1187=DIRECTION('',(0.196078431372549,0.,-0.980588215690195));
#1188=DIRECTION('',(-0.980588215690195,0.,-0.196078431372549));
#1189=DIRECTION('',(-0.707106781186559,0.,0.707106781186537));
#1190=DIRECTION('',(0.707106781186537,0.,0.707106781186559));
#1191=DIRECTION('',(-0.707106781186537,0.,-0.707106781186559));
#1192=DIRECTION('',(0.,-1.,0.));
#1193=DIRECTION('',(0.,1.,0.));
#1194=DIRECTION('',(1.,0.,0.));
#1195=DIRECTION('',(0.,1.,0.));
#1196=DIRECTION('',(1.,0.,0.));
#1197=DIRECTION('',(0.,-1.,0.));
#1198=DIRECTION('',(-1.,0.,0.));
#1199=DIRECTION('',(0.,-1.,0.));
#1200=DIRECTION('',(-1.,0.,0.));
#1201=DIRECTION('',(0.,1.,0.));
#1202=DIRECTION('',(1.,0.,0.));
#1203=DIRECTION('',(0.,-1.,0.));
#1204=DIRECTION('',(-1.,0.,0.));
#1205=DIRECTION('',(0.,-1.,0.));
#1206=DIRECTION('',(-1.,0.,0.));
#1207=DIRECTION('',(0.,1.,0.));
#1208=DIRECTION('',(1.,0.,0.));
#1209=DIRECTION('',(0.,-1.,0.));
#1210=DIRECTION('',(-1.,0.,0.));
#1211=DIRECTION('',(0.,-1.,0.));
#1212=DIRECTION('',(-1.,0.,0.));
#1213=DIRECTION('',(0.,1.,0.));
#1214=DIRECTION('',(1.,0.,0.));
#1215=DIRECTION('',(0.,-1.,0.));
#1216=DIRECTION('',(-1.,0.,0.));
#1217=DIRECTION('',(0.,-1.,0.));
#1218=DIRECTION('',(-1.,0.,0.));
#1219=DIRECTION('',(-1.,0.,1.90819582357449E-16));
#1220=DIRECTION('',(1.90819582357449E-16,0.,1.));
#1221=DIRECTION('',(0.,-1.,0.));
#1222=DIRECTION('',(-1.90819582357449E-16,0.,-1.));
#1223=DIRECTION('',(0.,-1.,0.));
#1224=DIRECTION('',(0.999806914848985,0.,-0.0196502676865768));
#1225=DIRECTION('',(-0.0196502676865768,0.,-0.999806914848985));
#1226=DIRECTION('',(-0.015940325582475,0.584766801628772,-0.811044816106472));
#1227=DIRECTION('',(0.0196502676865768,0.,0.999806914848985));
#1228=DIRECTION('',(0.994801804142459,0.,-0.101830105935862));
#1229=DIRECTION('',(-0.101830105935862,0.,-0.994801804142459));
#1230=DIRECTION('',(0.101830105935862,0.,0.994801804142459));
#1231=DIRECTION('',(0.0940421274762564,-0.383550552721329,0.918719245344791));
#1232=DIRECTION('',(0.,-1.,0.));
#1233=DIRECTION('',(-1.,0.,0.));
#1234=DIRECTION('',(0.,1.,0.));
#1235=DIRECTION('',(0.,-1.,0.));
#1236=DIRECTION('',(0.,0.,-1.));
#1237=DIRECTION('',(0.,-1.,0.));
#1238=DIRECTION('',(-1.,0.,0.));
#1239=DIRECTION('',(0.,-1.,0.));
#1240=DIRECTION('',(0.,-1.,0.));
#1241=DIRECTION('',(1.,0.,0.));
#1242=DIRECTION('',(2.77584646167195E-16,0.,1.));
#1243=DIRECTION('',(1.,0.,-2.77584646167195E-16));
#1244=DIRECTION('',(0.,-1.,0.));
#1245=DIRECTION('',(-1.,0.,2.77584646167195E-16));
#1246=DIRECTION('',(0.,-1.,0.));
#1247=DIRECTION('',(-1.,0.,0.));
#1248=DIRECTION('',(0.,-1.,0.));
#1249=DIRECTION('',(1.,0.,0.));
#1250=DIRECTION('',(0.,1.,0.));
#1251=DIRECTION('',(1.,0.,0.));
#1252=DIRECTION('',(0.,0.,1.));
#1253=DIRECTION('',(0.505787547055815,0.,0.862658076669582));
#1254=DIRECTION('',(0.707106781186548,0.,-0.707106781186548));
#1255=DIRECTION('',(0.,0.,-1.));
#1256=DIRECTION('',(-0.707106781186548,0.,-0.707106781186547));
#1257=DIRECTION('',(-1.,0.,0.));
#1258=DIRECTION('',(-0.707106781186547,0.,0.707106781186548));
#1259=DIRECTION('',(0.5,0.707106781186548,0.5));
#1260=DIRECTION('',(-0.707106781186548,0.,0.707106781186548));
#1261=DIRECTION('',(0.678598344545846,-0.678598344545847,0.281084637714822));
#1262=DIRECTION('',(-0.707106781186548,-0.707106781186547,0.));
#1263=DIRECTION('',(0.,0.,1.));
#1264=DIRECTION('',(-0.678598344545846,0.678598344545847,0.281084637714822));
#1265=DIRECTION('',(-0.5,-0.707106781186548,0.5));
#1266=DIRECTION('',(0.707106781186548,0.,0.707106781186547));
#1267=DIRECTION('',(-0.28108463771482,0.678598344545847,0.678598344545847));
#1268=DIRECTION('',(0.,-0.707106781186548,0.707106781186547));
#1269=DIRECTION('',(1.,0.,0.));
#1270=DIRECTION('',(0.28108463771482,0.678598344545847,0.678598344545847));
#1271=DIRECTION('',(0.5,-0.707106781186548,0.5));
#1272=DIRECTION('',(0.707106781186547,0.,-0.707106781186548));
#1273=DIRECTION('',(-0.678598344545847,-0.678598344545847,-0.28108463771482));
#1274=DIRECTION('',(-0.707106781186547,0.707106781186548,0.));
#1275=DIRECTION('',(0.,0.,-1.));
#1276=DIRECTION('',(0.694421945100766,0.694421945100765,-0.188563846813062));
#1277=DIRECTION('',(-0.609991375858407,0.707106781186547,0.357645804362877));
#1278=DIRECTION('',(-0.505787547055815,0.,-0.862658076669582));
#1279=DIRECTION('',(0.,0.,-1.));
#1280=DIRECTION('',(0.,1.,0.));
#1281=DIRECTION('',(-1.,0.,0.));
#1282=DIRECTION('',(0.,0.,-1.));
#1283=DIRECTION('',(0.,1.,0.));
#1284=DIRECTION('',(-1.,0.,0.));
#1285=DIRECTION('',(-1.,0.,0.));
#1286=DIRECTION('',(0.,-1.,0.));
#1287=DIRECTION('',(-1.,0.,0.));
#1288=DIRECTION('',(0.,0.,-1.));
#1289=DIRECTION('',(0.,1.,0.));
#1290=DIRECTION('',(-1.,0.,0.));
#1291=DIRECTION('',(0.,-1.,0.));
#1292=DIRECTION('',(-1.,0.,0.));
#1293=DIRECTION('',(-1.,0.,0.));
#1294=DIRECTION('',(0.,0.,-1.));
#1295=DIRECTION('',(0.,1.,0.));
#1296=DIRECTION('',(-1.,0.,0.));
#1297=DIRECTION('',(0.,-1.,0.));
#1298=DIRECTION('',(-1.,0.,0.));
#1299=CARTESIAN_POINT('',(0.,0.,0.));
#1300=CARTESIAN_POINT('',(-50.,25.,-50.));
#1301=CARTESIAN_POINT('',(-96.6,25.,5.39999999999985));
#1302=CARTESIAN_POINT('',(-98.95,25.,5.39999999999985));
#1303=CARTESIAN_POINT('',(2.77555756156289E-14,25.,3.42));
#1304=CARTESIAN_POINT('',(-2.34999999999997,25.,3.42));
#1305=CARTESIAN_POINT('',(2.77555756156289E-14,25.,-103.4));
#1306=CARTESIAN_POINT('',(-2.34999999999997,25.,-103.4));
#1307=CARTESIAN_POINT('',(-99.9947961799572,25.,-103.4));
#1308=CARTESIAN_POINT('',(-102.344796179957,25.,-103.4));
#1309=CARTESIAN_POINT('',(-100.4,25.,0.4));
#1310=CARTESIAN_POINT('',(-100.,25.,0.800000000000018));
#1311=CARTESIAN_POINT('',(-100.8,25.,-1.65340831304039E-14));
#1312=CARTESIAN_POINT('',(-78.,25.,-1.17093834628434E-13));
#1313=CARTESIAN_POINT('',(-103.,25.,-1.17093834628434E-13));
#1314=CARTESIAN_POINT('',(-101.5,25.,5.));
#1315=CARTESIAN_POINT('',(-100.,25.,10.));
#1316=CARTESIAN_POINT('',(-74.9950004999,25.,15.));
#1317=CARTESIAN_POINT('',(-49.9900009998,25.,20.));
#1318=CARTESIAN_POINT('',(-25.,25.,20.));
#1319=CARTESIAN_POINT('',(-1.4142135623731,25.,20.));
#1320=CARTESIAN_POINT('',(9.29289321881345,25.,9.29289321881344));
#1321=CARTESIAN_POINT('',(7.0271736982815,25.,11.5586127393454));
#1322=CARTESIAN_POINT('',(6.92721649222078,25.,6.47278350777924));
#1323=CARTESIAN_POINT('',(6.8,25.,0.));
#1324=CARTESIAN_POINT('',(6.8,25.,-50.));
#1325=CARTESIAN_POINT('',(6.8,25.,-100.));
#1326=CARTESIAN_POINT('',(4.15598846154945E-14,25.,-100.));
#1327=CARTESIAN_POINT('',(4.16333634234433E-14,25.,-106.8));
#1328=CARTESIAN_POINT('',(-49.9947961799571,25.,-106.8));
#1329=CARTESIAN_POINT('',(-99.9895923599143,25.,-106.8));
#1330=CARTESIAN_POINT('',(-99.9895923599143,25.,-99.9895923599143));
#1331=CARTESIAN_POINT('',(-106.8,25.,-99.9895923599143));
#1332=CARTESIAN_POINT('',(-106.8,25.,-74.9743770875438));
#1333=CARTESIAN_POINT('',(-106.8,25.,-49.9591618151733));
#1334=CARTESIAN_POINT('',(-103.939438827732,25.,-22.0136795937961));
#1335=CARTESIAN_POINT('',(-104.258271838388,25.,-25.1284328517423));
#1336=CARTESIAN_POINT('',(-101.229868930359,25.,-19.9632676687942));
#1337=CARTESIAN_POINT('',(-103.,25.,-22.982357151876));
#1338=CARTESIAN_POINT('',(-103.,25.,-9.335));
#1339=CARTESIAN_POINT('',(-103.,25.,-21.005242440727));
#1340=CARTESIAN_POINT('',(-78.,25.,-21.005242440727));
#1341=CARTESIAN_POINT('',(-100.8,25.,-21.005242440727));
#1342=CARTESIAN_POINT('',(-100.8,25.,-56.945));
#1343=CARTESIAN_POINT('',(-100.8,25.,-100.));
#1344=CARTESIAN_POINT('',(-100.4,25.,-100.4));
#1345=CARTESIAN_POINT('',(-100.,25.,-100.8));
#1346=CARTESIAN_POINT('',(-50.,25.,-100.8));
#1347=CARTESIAN_POINT('',(-6.93889390390723E-15,25.,-100.8));
#1348=CARTESIAN_POINT('',(0.399999999999984,25.,-100.4));
#1349=CARTESIAN_POINT('',(0.8,25.,-100.));
#1350=CARTESIAN_POINT('',(0.8,25.,-50.));
#1351=CARTESIAN_POINT('',(0.8,25.,-1.7347234759768E-15));
#1352=CARTESIAN_POINT('',(0.4,25.,0.399999999999995));
#1353=CARTESIAN_POINT('',(5.09575021068187E-15,25.,0.8));
#1354=CARTESIAN_POINT('',(-50.,25.,0.8));
#1355=CARTESIAN_POINT('',(-103.,5.,-9.335));
#1356=CARTESIAN_POINT('',(-103.,5.,-21.005242440727));
#1357=CARTESIAN_POINT('',(-103.,24.,-21.005242440727));
#1358=CARTESIAN_POINT('',(-103.,25.4137137859415,-23.8003167642662));
#1359=CARTESIAN_POINT('',(-110.,5.,-110.));
#1360=CARTESIAN_POINT('',(-120.,5.,-100.));
#1361=CARTESIAN_POINT('',(-120.,24.,-100.));
#1362=CARTESIAN_POINT('',(-120.,0.,-100.));
#1363=CARTESIAN_POINT('',(-110.,24.,-110.));
#1364=CARTESIAN_POINT('',(-100.,24.,-120.));
#1365=CARTESIAN_POINT('',(-100.,5.,-120.));
#1366=CARTESIAN_POINT('',(-100.,0.,-120.));
#1367=CARTESIAN_POINT('',(-110.,0.,-110.));
#1368=CARTESIAN_POINT('',(-120.,5.,-75.));
#1369=CARTESIAN_POINT('',(-120.,5.,-50.));
#1370=CARTESIAN_POINT('',(-120.,24.,-50.));
#1371=CARTESIAN_POINT('',(-120.,0.,-50.));
#1372=CARTESIAN_POINT('',(-120.,24.,-100.));
#1373=CARTESIAN_POINT('',(-120.,0.,-75.));
#1374=CARTESIAN_POINT('',(-115.,5.,-41.4721301296255));
#1375=CARTESIAN_POINT('',(-103.,5.,-21.005242440727));
#1376=CARTESIAN_POINT('',(-103.,18.8746731728316,-21.005242440727));
#1377=CARTESIAN_POINT('',(-120.,24.,-50.));
#1378=CARTESIAN_POINT('',(-115.,0.,-41.4721301296255));
#1379=CARTESIAN_POINT('',(-103.,0.,-21.005242440727));
#1380=CARTESIAN_POINT('',(-103.,5.,-21.005242440727));
#1381=CARTESIAN_POINT('',(-103.,5.,-9.335));
#1382=CARTESIAN_POINT('',(-103.,18.8746731728316,-18.6730163785948));
#1383=CARTESIAN_POINT('',(-103.,18.8746731728316,-16.3407903164625));
#1384=CARTESIAN_POINT('',(-103.,0.,-9.335));
#1385=CARTESIAN_POINT('',(-103.,0.,-1.17093834628434E-13));
#1386=CARTESIAN_POINT('',(-103.,5.,-1.17093834628434E-13));
#1387=CARTESIAN_POINT('',(-103.,18.8746731728316,-1.17093834628434E-13));
#1388=CARTESIAN_POINT('',(-103.,18.8746731728316,-2.53109401091939));
#1389=CARTESIAN_POINT('',(-103.,18.8746731728316,-5.06218802183867));
#1390=CARTESIAN_POINT('',(-103.,18.8665306195617,-5.06218802183867));
#1391=CARTESIAN_POINT('',(-103.,18.8583880662918,-5.06218802183867));
#1392=CARTESIAN_POINT('',(-103.,18.8583880662918,-10.7014891691506));
#1393=CARTESIAN_POINT('',(-103.,18.8583880662918,-16.3407903164625));
#1394=CARTESIAN_POINT('',(-103.,18.8665306195617,-16.3407903164625));
#1395=CARTESIAN_POINT('',(-101.5,5.,5.));
#1396=CARTESIAN_POINT('',(-101.5,0.,5.));
#1397=CARTESIAN_POINT('',(-100.,0.,10.));
#1398=CARTESIAN_POINT('',(-100.,5.,10.));
#1399=CARTESIAN_POINT('',(-100.,5.,10.));
#1400=CARTESIAN_POINT('',(-100.,25.,10.));
#1401=CARTESIAN_POINT('',(-103.,5.,-1.17093834628434E-13));
#1402=CARTESIAN_POINT('',(-75.,5.,15.));
#1403=CARTESIAN_POINT('',(-75.,0.,15.));
#1404=CARTESIAN_POINT('',(-50.,0.,20.));
#1405=CARTESIAN_POINT('',(-50.,5.,20.));
#1406=CARTESIAN_POINT('',(-49.9950004999,5.,20.));
#1407=CARTESIAN_POINT('',(-75.,5.,15.));
#1408=CARTESIAN_POINT('',(-25.,5.,20.));
#1409=CARTESIAN_POINT('',(0.,5.,20.));
#1410=CARTESIAN_POINT('',(0.,24.,20.));
#1411=CARTESIAN_POINT('',(0.,0.,20.));
#1412=CARTESIAN_POINT('',(1.95262145875635,22.619288125423,20.));
#1413=CARTESIAN_POINT('',(-49.9900009998,25.,20.));
#1414=CARTESIAN_POINT('',(-25.,0.,20.));
#1415=CARTESIAN_POINT('',(10.,5.,10.));
#1416=CARTESIAN_POINT('',(20.,5.,-3.46944695195361E-15));
#1417=CARTESIAN_POINT('',(20.,24.,-3.46944695195361E-15));
#1418=CARTESIAN_POINT('',(20.,0.,-3.46944695195361E-15));
#1419=CARTESIAN_POINT('',(7.05443298444151,24.,12.9455670155585));
#1420=CARTESIAN_POINT('',(10.,0.,10.));
#1421=CARTESIAN_POINT('',(20.,5.,-50.));
#1422=CARTESIAN_POINT('',(20.,5.,-100.));
#1423=CARTESIAN_POINT('',(20.,24.,-100.));
#1424=CARTESIAN_POINT('',(20.,0.,-100.));
#1425=CARTESIAN_POINT('',(20.,24.,-50.));
#1426=CARTESIAN_POINT('',(20.,0.,-50.));
#1427=CARTESIAN_POINT('',(10.,5.,-110.));
#1428=CARTESIAN_POINT('',(-8.67361737988404E-15,5.,-120.));
#1429=CARTESIAN_POINT('',(-8.67361737988404E-15,24.,-120.));
#1430=CARTESIAN_POINT('',(-8.67361737988404E-15,0.,-120.));
#1431=CARTESIAN_POINT('',(10.,24.,-110.));
#1432=CARTESIAN_POINT('',(10.,0.,-110.));
#1433=CARTESIAN_POINT('',(-50.,5.,-120.));
#1434=CARTESIAN_POINT('',(-50.,24.,-120.));
#1435=CARTESIAN_POINT('',(-50.,0.,-120.));
#1436=CARTESIAN_POINT('',(-50.,0.,-50.));
#1437=CARTESIAN_POINT('',(-100.8,25.,-56.945));
#1438=CARTESIAN_POINT('',(-100.8,18.8746731728316,-56.945));
#1439=CARTESIAN_POINT('',(-100.8,18.8746731728316,-1.17093834628434E-13));
#1440=CARTESIAN_POINT('',(-100.8,18.8746731728316,-5.06218802183867));
#1441=CARTESIAN_POINT('',(-100.8,25.,-1.65340831304039E-14));
#1442=CARTESIAN_POINT('',(-100.8,5.,-1.65340831304039E-14));
#1443=CARTESIAN_POINT('',(-100.8,5.,-56.945));
#1444=CARTESIAN_POINT('',(-100.8,5.,-100.));
#1445=CARTESIAN_POINT('',(-100.8,25.,-100.));
#1446=CARTESIAN_POINT('',(-100.8,25.,-21.005242440727));
#1447=CARTESIAN_POINT('',(-100.8,18.8746731728316,-21.005242440727));
#1448=CARTESIAN_POINT('',(-100.8,18.8746731728316,-56.945));
#1449=CARTESIAN_POINT('',(-100.8,18.8746731728316,-16.3407903164625));
#1450=CARTESIAN_POINT('',(-100.8,25.,-16.3407903164625));
#1451=CARTESIAN_POINT('',(-100.8,18.8583880662918,-16.3407903164625));
#1452=CARTESIAN_POINT('',(-100.8,18.8583880662918,-56.945));
#1453=CARTESIAN_POINT('',(-100.8,18.8583880662918,-5.06218802183867));
#1454=CARTESIAN_POINT('',(-100.8,25.,-5.06218802183867));
#1455=CARTESIAN_POINT('',(-100.4,25.,-100.4));
#1456=CARTESIAN_POINT('',(-100.4,5.,-100.4));
#1457=CARTESIAN_POINT('',(-100.,5.,-100.8));
#1458=CARTESIAN_POINT('',(-100.,25.,-100.8));
#1459=CARTESIAN_POINT('',(-50.,25.,-100.8));
#1460=CARTESIAN_POINT('',(-50.,5.,-100.8));
#1461=CARTESIAN_POINT('',(-6.93889390390723E-15,5.,-100.8));
#1462=CARTESIAN_POINT('',(-6.93889390390723E-15,25.,-100.8));
#1463=CARTESIAN_POINT('',(0.399999999999984,25.,-100.4));
#1464=CARTESIAN_POINT('',(0.399999999999984,5.,-100.4));
#1465=CARTESIAN_POINT('',(0.8,5.,-100.));
#1466=CARTESIAN_POINT('',(0.8,25.,-100.));
#1467=CARTESIAN_POINT('',(0.8,25.,-50.));
#1468=CARTESIAN_POINT('',(0.8,5.,-50.));
#1469=CARTESIAN_POINT('',(0.8,5.,-1.7347234759768E-15));
#1470=CARTESIAN_POINT('',(0.8,25.,-1.7347234759768E-15));
#1471=CARTESIAN_POINT('',(0.4,25.,0.399999999999995));
#1472=CARTESIAN_POINT('',(0.4,5.,0.399999999999995));
#1473=CARTESIAN_POINT('',(5.09575021068187E-15,5.,0.8));
#1474=CARTESIAN_POINT('',(5.09575021068187E-15,25.,0.8));
#1475=CARTESIAN_POINT('',(-50.,25.,0.8));
#1476=CARTESIAN_POINT('',(-50.,5.,0.8));
#1477=CARTESIAN_POINT('',(-100.,5.,0.800000000000018));
#1478=CARTESIAN_POINT('',(-100.,25.,0.800000000000018));
#1479=CARTESIAN_POINT('',(-74.9950004999,25.,15.));
#1480=CARTESIAN_POINT('',(-100.4,25.,0.4));
#1481=CARTESIAN_POINT('',(-100.4,5.,0.4));
#1482=CARTESIAN_POINT('',(-100.8,25.,-1.65340831304039E-14));
#1483=CARTESIAN_POINT('',(-50.,5.,-50.));
#1484=CARTESIAN_POINT('',(-97.6447961799572,21.,-103.4));
#1485=CARTESIAN_POINT('',(-99.9947961799572,21.,-103.4));
#1486=CARTESIAN_POINT('',(-102.344796179957,21.,-103.4));
#1487=CARTESIAN_POINT('',(-99.9947961799572,25.,-103.4));
#1488=CARTESIAN_POINT('',(2.35000000000004,21.,-103.4));
#1489=CARTESIAN_POINT('',(2.77555756156289E-14,21.,-103.4));
#1490=CARTESIAN_POINT('',(-2.34999999999997,21.,-103.4));
#1491=CARTESIAN_POINT('',(2.77555756156289E-14,25.,-103.4));
#1492=CARTESIAN_POINT('',(2.35000000000004,21.,3.42));
#1493=CARTESIAN_POINT('',(2.77555756156289E-14,21.,3.42));
#1494=CARTESIAN_POINT('',(-2.34999999999997,21.,3.42));
#1495=CARTESIAN_POINT('',(2.77555756156289E-14,25.,3.42));
#1496=CARTESIAN_POINT('',(-94.25,21.,5.39999999999985));
#1497=CARTESIAN_POINT('',(-96.6,21.,5.39999999999985));
#1498=CARTESIAN_POINT('',(-98.95,21.,5.39999999999985));
#1499=CARTESIAN_POINT('',(-96.6,25.,5.39999999999985));
#1500=CARTESIAN_POINT('',(6.8,29.,-50.));
#1501=CARTESIAN_POINT('',(6.8,29.,0.));
#1502=CARTESIAN_POINT('',(6.8,29.,0.));
#1503=CARTESIAN_POINT('',(6.8,29.,-50.));
#1504=CARTESIAN_POINT('',(6.8,29.,-100.));
#1505=CARTESIAN_POINT('',(6.8,29.,-100.));
#1506=CARTESIAN_POINT('',(6.92721649222078,29.,6.47278350777924));
#1507=CARTESIAN_POINT('',(6.9238864748729,28.7890655977674,6.30335200567003));
#1508=CARTESIAN_POINT('',(6.91813655364145,29.,6.01079563449307));
#1509=CARTESIAN_POINT('',(6.92721649222078,29.,6.47278350777924));
#1510=CARTESIAN_POINT('',(-103.939438827732,29.,-22.0136795937961));
#1511=CARTESIAN_POINT('',(-103.939438827732,29.,-22.0136795937961));
#1512=CARTESIAN_POINT('',(-106.8,29.,-49.9591618151733));
#1513=CARTESIAN_POINT('',(-105.239025241652,29.,-34.7096391759297));
#1514=CARTESIAN_POINT('',(-104.1306223191,24.4793817941865,-23.8813952402353));
#1515=CARTESIAN_POINT('',(-106.8,29.,-49.9591618151733));
#1516=CARTESIAN_POINT('',(-106.8,29.,-74.9743770875438));
#1517=CARTESIAN_POINT('',(-106.8,29.,-99.9895923599143));
#1518=CARTESIAN_POINT('',(-106.8,29.,-99.9895923599143));
#1519=CARTESIAN_POINT('',(-106.8,29.,-74.9743770875438));
#1520=CARTESIAN_POINT('',(-99.9895923599143,29.,-99.9895923599143));
#1521=CARTESIAN_POINT('',(-99.9895923599143,29.,-106.8));
#1522=CARTESIAN_POINT('',(-99.9895923599143,29.,-106.8));
#1523=CARTESIAN_POINT('',(-99.9895923599143,29.,-99.9895923599143));
#1524=CARTESIAN_POINT('',(-49.9947961799571,29.,-106.8));
#1525=CARTESIAN_POINT('',(4.16333634234433E-14,29.,-106.8));
#1526=CARTESIAN_POINT('',(4.16333634234433E-14,29.,-106.8));
#1527=CARTESIAN_POINT('',(-49.9947961799571,29.,-106.8));
#1528=CARTESIAN_POINT('',(4.15598846154945E-14,29.,-100.));
#1529=CARTESIAN_POINT('',(4.15598846154945E-14,29.,-100.));
#1530=CARTESIAN_POINT('',(-50.,29.,-50.));
#1531=CARTESIAN_POINT('',(-115.,29.,-50.));
#1532=CARTESIAN_POINT('',(-115.,29.,-97.9289321881345));
#1533=CARTESIAN_POINT('',(-115.,29.,-51.3577036853703));
#1534=CARTESIAN_POINT('',(-99.6997931042247,29.,-25.2620690059746));
#1535=CARTESIAN_POINT('',(16.4644660940673,29.,-3.53553390593274));
#1536=CARTESIAN_POINT('',(15.,29.,-2.07106781186549));
#1537=CARTESIAN_POINT('',(15.,29.,-50.));
#1538=CARTESIAN_POINT('',(15.,29.,-97.9289321881345));
#1539=CARTESIAN_POINT('',(6.46446609406723,29.,-106.464466094067));
#1540=CARTESIAN_POINT('',(-2.07106781186548,29.,-115.));
#1541=CARTESIAN_POINT('',(-50.,29.,-115.));
#1542=CARTESIAN_POINT('',(-97.9289321881346,29.,-115.));
#1543=CARTESIAN_POINT('',(-106.464466094067,29.,-106.464466094067));
#1544=CARTESIAN_POINT('',(6.46446609406725,29.,6.46446609406727));
#1545=CARTESIAN_POINT('',(12.6975214338982,31.3024785661018,-3.02478566101822));
#1546=CARTESIAN_POINT('',(20.,24.,-50.));
#1547=CARTESIAN_POINT('',(10.4628215084726,33.5371784915273,-96.0495713220364));
#1548=CARTESIAN_POINT('',(10.,24.,-110.));
#1549=CARTESIAN_POINT('',(-1.11734996271275,26.6975214338982,-117.302478566102));
#1550=CARTESIAN_POINT('',(-50.,24.,-120.));
#1551=CARTESIAN_POINT('',(-96.0495713220365,33.5371784915273,-110.462821508473));
#1552=CARTESIAN_POINT('',(-110.,24.,-110.));
#1553=CARTESIAN_POINT('',(-117.302478566102,26.6975214338982,-98.8826500372873));
#1554=CARTESIAN_POINT('',(-115.,29.,-50.));
#1555=CARTESIAN_POINT('',(-115.177781621625,28.8222183783753,-51.3094287327961));
#1556=CARTESIAN_POINT('',(-97.7792366236804,29.,-21.9864178570174));
#1557=CARTESIAN_POINT('',(-78.,5.,-1.17093834628434E-13));
#1558=CARTESIAN_POINT('',(-78.,18.8746731728316,-1.17093834628434E-13));
#1559=CARTESIAN_POINT('',(-78.,18.8665306195617,-5.06218802183867));
#1560=CARTESIAN_POINT('',(-78.,18.8583880662918,-5.06218802183867));
#1561=CARTESIAN_POINT('',(-78.,18.8746731728316,-5.06218802183867));
#1562=CARTESIAN_POINT('',(-78.,18.8746731728316,-2.53109401091939));
#1563=CARTESIAN_POINT('',(-78.,5.,-21.005242440727));
#1564=CARTESIAN_POINT('',(-78.,18.8746731728316,-21.005242440727));
#1565=CARTESIAN_POINT('',(-78.,18.8746731728316,-18.6730163785948));
#1566=CARTESIAN_POINT('',(-78.,18.8746731728316,-16.3407903164625));
#1567=CARTESIAN_POINT('',(-78.,18.8665306195617,-16.3407903164625));
#1568=CARTESIAN_POINT('',(-78.,18.8583880662918,-16.3407903164625));
#1569=CARTESIAN_POINT('',(-78.,18.8583880662918,-10.7014891691506));
#1570=MECHANICAL_DESIGN_GEOMETRIC_PRESENTATION_REPRESENTATION('',(#969),
#1571);
#1571=(
GEOMETRIC_REPRESENTATION_CONTEXT(3)
GLOBAL_UNCERTAINTY_ASSIGNED_CONTEXT((#1572))
GLOBAL_UNIT_ASSIGNED_CONTEXT((#1575,#1574,#1573))
REPRESENTATION_CONTEXT('case','TOP_LEVEL_ASSEMBLY_PART')
);
#1572=UNCERTAINTY_MEASURE_WITH_UNIT(LENGTH_MEASURE(0.0299990001999817),
#1575,'DISTANCE_ACCURACY_VALUE','Maximum Tolerance applied to model');
#1573=(
NAMED_UNIT(*)
SI_UNIT($,.STERADIAN.)
SOLID_ANGLE_UNIT()
);
#1574=(
NAMED_UNIT(*)
PLANE_ANGLE_UNIT()
SI_UNIT($,.RADIAN.)
);
#1575=(
LENGTH_UNIT()
NAMED_UNIT(*)
SI_UNIT(.MILLI.,.METRE.)
);
#1576=PRODUCT_DEFINITION_SHAPE('','',#1577);
#1577=PRODUCT_DEFINITION('','',#1579,#1578);
#1578=PRODUCT_DEFINITION_CONTEXT('',#1585,'design');
#1579=PRODUCT_DEFINITION_FORMATION_WITH_SPECIFIED_SOURCE('','',#1581,
 .NOT_KNOWN.);
#1580=PRODUCT_RELATED_PRODUCT_CATEGORY('','',(#1581));
#1581=PRODUCT('case','case','case',(#1583));
#1582=PRODUCT_CATEGORY('','');
#1583=PRODUCT_CONTEXT('',#1585,'mechanical');
#1584=APPLICATION_PROTOCOL_DEFINITION('international standard',
'ap242_managed_model_based_3d_engineering',2020,#1585);
#1585=APPLICATION_CONTEXT('managed model based 3d engineering');
ENDSEC;
END-ISO-10303-21;
