ISO-10303-21;
HEADER;
/* Generated by software containing ST-Developer
 * from STEP Tools, Inc. (www.steptools.com) 
 */
/* OPTION: using custom renumber hook */

FILE_DESCRIPTION(
/* description */ ('STEP AP242 Edition 2',
'CAx-IF Rec.Pracs.---Representation and Presentation of Product Manufa
cturing Information (PMI)---4.0---2014-10-13',
'CAx-IF Rec.Pracs.---3D Tessellated Geometry---0.4---2014-09-14','2;1',
'CAx-IF Rec.Pracs.---User Defined Attributes---1.5---2016-08-15'),
/* implementation_level */ '2;1');

FILE_NAME(
/* name */ 'case',
/* time_stamp */ '2026-09-04T13:03:20Z',
/* author */ (''),
/* organization */ (''),
/* preprocessor_version */ 'ST-DEVELOPER v20',
/* originating_system */ 'ONSHAPE BY PTC INC, 1.220',
/* authorisation */ '  ');

FILE_SCHEMA (('AP242_MANAGED_MODEL_BASED_3D_ENGINEERING_MIM_LF { 1 0 10303 442 3 1 4 }'));
ENDSEC;

DATA;
#10=SHAPE_REPRESENTATION_RELATIONSHIP('','',#898,#11);
#11=ADVANCED_BREP_SHAPE_REPRESENTATION('',(#896),#1442);
#12=CYLINDRICAL_SURFACE('',#931,2.35);
#13=CYLINDRICAL_SURFACE('',#934,2.35);
#14=CYLINDRICAL_SURFACE('',#937,2.35);
#15=CYLINDRICAL_SURFACE('',#940,2.35);
#16=CYLINDRICAL_SURFACE('',#945,6.81040764008564);
#17=CYLINDRICAL_SURFACE('',#948,6.8);
#18=LINE('',#1202,#125);
#19=LINE('',#1205,#126);
#20=LINE('',#1207,#127);
#21=LINE('',#1209,#128);
#22=LINE('',#1211,#129);
#23=LINE('',#1213,#130);
#24=LINE('',#1215,#131);
#25=LINE('',#1217,#132);
#26=LINE('',#1219,#133);
#27=LINE('',#1223,#134);
#28=LINE('',#1227,#135);
#29=LINE('',#1229,#136);
#30=LINE('',#1231,#137);
#31=LINE('',#1233,#138);
#32=LINE('',#1235,#139);
#33=LINE('',#1237,#140);
#34=LINE('',#1239,#141);
#35=LINE('',#1241,#142);
#36=LINE('',#1243,#143);
#37=LINE('',#1245,#144);
#38=LINE('',#1247,#145);
#39=LINE('',#1249,#146);
#40=LINE('',#1251,#147);
#41=LINE('',#1253,#148);
#42=LINE('',#1256,#149);
#43=LINE('',#1258,#150);
#44=LINE('',#1260,#151);
#45=LINE('',#1262,#152);
#46=LINE('',#1265,#153);
#47=LINE('',#1266,#154);
#48=LINE('',#1268,#155);
#49=LINE('',#1271,#156);
#50=LINE('',#1272,#157);
#51=LINE('',#1274,#158);
#52=LINE('',#1276,#159);
#53=LINE('',#1277,#160);
#54=LINE('',#1279,#161);
#55=LINE('',#1280,#162);
#56=LINE('',#1282,#163);
#57=LINE('',#1284,#164);
#58=LINE('',#1286,#165);
#59=LINE('',#1288,#166);
#60=LINE('',#1290,#167);
#61=LINE('',#1292,#168);
#62=LINE('',#1294,#169);
#63=LINE('',#1296,#170);
#64=LINE('',#1299,#171);
#65=LINE('',#1300,#172);
#66=LINE('',#1301,#173);
#67=LINE('',#1303,#174);
#68=LINE('',#1306,#175);
#69=LINE('',#1307,#176);
#70=LINE('',#1309,#177);
#71=LINE('',#1312,#178);
#72=LINE('',#1313,#179);
#73=LINE('',#1315,#180);
#74=LINE('',#1318,#181);
#75=LINE('',#1319,#182);
#76=LINE('',#1321,#183);
#77=LINE('',#1322,#184);
#78=LINE('',#1325,#185);
#79=LINE('',#1327,#186);
#80=LINE('',#1329,#187);
#81=LINE('',#1330,#188);
#82=LINE('',#1332,#189);
#83=LINE('',#1334,#190);
#84=LINE('',#1336,#191);
#85=LINE('',#1338,#192);
#86=LINE('',#1340,#193);
#87=LINE('',#1342,#194);
#88=LINE('',#1344,#195);
#89=LINE('',#1346,#196);
#90=LINE('',#1348,#197);
#91=LINE('',#1350,#198);
#92=LINE('',#1352,#199);
#93=LINE('',#1354,#200);
#94=LINE('',#1356,#201);
#95=LINE('',#1358,#202);
#96=LINE('',#1361,#203);
#97=LINE('',#1380,#204);
#98=LINE('',#1382,#205);
#99=LINE('',#1384,#206);
#100=LINE('',#1386,#207);
#101=LINE('',#1388,#208);
#102=LINE('',#1390,#209);
#103=LINE('',#1393,#210);
#104=LINE('',#1394,#211);
#105=LINE('',#1396,#212);
#106=LINE('',#1398,#213);
#107=LINE('',#1400,#214);
#108=LINE('',#1404,#215);
#109=LINE('',#1406,#216);
#110=LINE('',#1410,#217);
#111=LINE('',#1413,#218);
#112=LINE('',#1414,#219);
#113=LINE('',#1416,#220);
#114=LINE('',#1418,#221);
#115=LINE('',#1420,#222);
#116=LINE('',#1422,#223);
#117=LINE('',#1424,#224);
#118=LINE('',#1426,#225);
#119=LINE('',#1428,#226);
#120=LINE('',#1430,#227);
#121=LINE('',#1432,#228);
#122=LINE('',#1434,#229);
#123=LINE('',#1437,#230);
#124=LINE('',#1439,#231);
#125=VECTOR('',#973,1000.);
#126=VECTOR('',#974,1000.);
#127=VECTOR('',#975,1000.);
#128=VECTOR('',#976,1000.);
#129=VECTOR('',#977,1000.);
#130=VECTOR('',#978,1000.);
#131=VECTOR('',#979,1000.);
#132=VECTOR('',#980,1000.);
#133=VECTOR('',#981,1000.);
#134=VECTOR('',#984,1000.);
#135=VECTOR('',#987,1000.);
#136=VECTOR('',#988,1000.);
#137=VECTOR('',#989,1000.);
#138=VECTOR('',#990,1000.);
#139=VECTOR('',#991,1000.);
#140=VECTOR('',#992,1000.);
#141=VECTOR('',#993,1000.);
#142=VECTOR('',#994,1000.);
#143=VECTOR('',#995,1000.);
#144=VECTOR('',#996,1000.);
#145=VECTOR('',#997,1000.);
#146=VECTOR('',#998,1000.);
#147=VECTOR('',#999,1000.);
#148=VECTOR('',#1002,1000.);
#149=VECTOR('',#1003,1000.);
#150=VECTOR('',#1004,1000.);
#151=VECTOR('',#1005,1000.);
#152=VECTOR('',#1008,1000.);
#153=VECTOR('',#1009,1000.);
#154=VECTOR('',#1010,1000.);
#155=VECTOR('',#1013,1000.);
#156=VECTOR('',#1014,1000.);
#157=VECTOR('',#1015,1000.);
#158=VECTOR('',#1018,1000.);
#159=VECTOR('',#1019,1000.);
#160=VECTOR('',#1020,1000.);
#161=VECTOR('',#1021,1000.);
#162=VECTOR('',#1022,1000.);
#163=VECTOR('',#1023,1000.);
#164=VECTOR('',#1026,1000.);
#165=VECTOR('',#1027,1000.);
#166=VECTOR('',#1028,1000.);
#167=VECTOR('',#1031,1000.);
#168=VECTOR('',#1032,1000.);
#169=VECTOR('',#1033,1000.);
#170=VECTOR('',#1036,1000.);
#171=VECTOR('',#1037,1000.);
#172=VECTOR('',#1038,1000.);
#173=VECTOR('',#1039,1000.);
#174=VECTOR('',#1042,1000.);
#175=VECTOR('',#1043,1000.);
#176=VECTOR('',#1044,1000.);
#177=VECTOR('',#1047,1000.);
#178=VECTOR('',#1048,1000.);
#179=VECTOR('',#1049,1000.);
#180=VECTOR('',#1052,1000.);
#181=VECTOR('',#1053,1000.);
#182=VECTOR('',#1054,1000.);
#183=VECTOR('',#1057,1000.);
#184=VECTOR('',#1058,1000.);
#185=VECTOR('',#1063,1000.);
#186=VECTOR('',#1064,1000.);
#187=VECTOR('',#1065,1000.);
#188=VECTOR('',#1066,1000.);
#189=VECTOR('',#1067,1000.);
#190=VECTOR('',#1068,1000.);
#191=VECTOR('',#1071,1000.);
#192=VECTOR('',#1072,1000.);
#193=VECTOR('',#1075,1000.);
#194=VECTOR('',#1076,1000.);
#195=VECTOR('',#1079,1000.);
#196=VECTOR('',#1080,1000.);
#197=VECTOR('',#1083,1000.);
#198=VECTOR('',#1084,1000.);
#199=VECTOR('',#1087,1000.);
#200=VECTOR('',#1088,1000.);
#201=VECTOR('',#1091,1000.);
#202=VECTOR('',#1092,1000.);
#203=VECTOR('',#1097,1000.);
#204=VECTOR('',#1126,1000.);
#205=VECTOR('',#1127,1000.);
#206=VECTOR('',#1128,1000.);
#207=VECTOR('',#1131,1000.);
#208=VECTOR('',#1132,1000.);
#209=VECTOR('',#1135,1000.);
#210=VECTOR('',#1136,1000.);
#211=VECTOR('',#1137,1000.);
#212=VECTOR('',#1140,1000.);
#213=VECTOR('',#1141,1000.);
#214=VECTOR('',#1144,1000.);
#215=VECTOR('',#1149,1000.);
#216=VECTOR('',#1150,1000.);
#217=VECTOR('',#1157,1000.);
#218=VECTOR('',#1158,1000.);
#219=VECTOR('',#1159,1000.);
#220=VECTOR('',#1160,1000.);
#221=VECTOR('',#1161,1000.);
#222=VECTOR('',#1162,1000.);
#223=VECTOR('',#1163,1000.);
#224=VECTOR('',#1166,1000.);
#225=VECTOR('',#1169,1000.);
#226=VECTOR('',#1172,1000.);
#227=VECTOR('',#1175,1000.);
#228=VECTOR('',#1178,1000.);
#229=VECTOR('',#1181,1000.);
#230=VECTOR('',#1186,1000.);
#231=VECTOR('',#1189,1000.);
#232=ORIENTED_EDGE('',*,*,#470,.T.);
#233=ORIENTED_EDGE('',*,*,#471,.T.);
#234=ORIENTED_EDGE('',*,*,#472,.T.);
#235=ORIENTED_EDGE('',*,*,#473,.T.);
#236=ORIENTED_EDGE('',*,*,#474,.F.);
#237=ORIENTED_EDGE('',*,*,#475,.T.);
#238=ORIENTED_EDGE('',*,*,#476,.F.);
#239=ORIENTED_EDGE('',*,*,#477,.T.);
#240=ORIENTED_EDGE('',*,*,#478,.T.);
#241=ORIENTED_EDGE('',*,*,#479,.T.);
#242=ORIENTED_EDGE('',*,*,#480,.T.);
#243=ORIENTED_EDGE('',*,*,#481,.F.);
#244=ORIENTED_EDGE('',*,*,#482,.T.);
#245=ORIENTED_EDGE('',*,*,#483,.F.);
#246=ORIENTED_EDGE('',*,*,#484,.T.);
#247=ORIENTED_EDGE('',*,*,#485,.F.);
#248=ORIENTED_EDGE('',*,*,#486,.F.);
#249=ORIENTED_EDGE('',*,*,#487,.T.);
#250=ORIENTED_EDGE('',*,*,#488,.T.);
#251=ORIENTED_EDGE('',*,*,#489,.F.);
#252=ORIENTED_EDGE('',*,*,#490,.F.);
#253=ORIENTED_EDGE('',*,*,#491,.F.);
#254=ORIENTED_EDGE('',*,*,#492,.T.);
#255=ORIENTED_EDGE('',*,*,#493,.F.);
#256=ORIENTED_EDGE('',*,*,#494,.T.);
#257=ORIENTED_EDGE('',*,*,#495,.F.);
#258=ORIENTED_EDGE('',*,*,#496,.F.);
#259=ORIENTED_EDGE('',*,*,#497,.T.);
#260=ORIENTED_EDGE('',*,*,#498,.T.);
#261=ORIENTED_EDGE('',*,*,#499,.F.);
#262=ORIENTED_EDGE('',*,*,#500,.T.);
#263=ORIENTED_EDGE('',*,*,#501,.T.);
#264=ORIENTED_EDGE('',*,*,#502,.F.);
#265=ORIENTED_EDGE('',*,*,#503,.F.);
#266=ORIENTED_EDGE('',*,*,#504,.T.);
#267=ORIENTED_EDGE('',*,*,#499,.T.);
#268=ORIENTED_EDGE('',*,*,#505,.T.);
#269=ORIENTED_EDGE('',*,*,#506,.F.);
#270=ORIENTED_EDGE('',*,*,#507,.T.);
#271=ORIENTED_EDGE('',*,*,#503,.T.);
#272=ORIENTED_EDGE('',*,*,#508,.T.);
#273=ORIENTED_EDGE('',*,*,#509,.F.);
#274=ORIENTED_EDGE('',*,*,#489,.T.);
#275=ORIENTED_EDGE('',*,*,#510,.T.);
#276=ORIENTED_EDGE('',*,*,#506,.T.);
#277=ORIENTED_EDGE('',*,*,#511,.F.);
#278=ORIENTED_EDGE('',*,*,#512,.F.);
#279=ORIENTED_EDGE('',*,*,#476,.T.);
#280=ORIENTED_EDGE('',*,*,#513,.T.);
#281=ORIENTED_EDGE('',*,*,#514,.F.);
#282=ORIENTED_EDGE('',*,*,#515,.T.);
#283=ORIENTED_EDGE('',*,*,#516,.F.);
#284=ORIENTED_EDGE('',*,*,#517,.F.);
#285=ORIENTED_EDGE('',*,*,#477,.F.);
#286=ORIENTED_EDGE('',*,*,#512,.T.);
#287=ORIENTED_EDGE('',*,*,#518,.F.);
#288=ORIENTED_EDGE('',*,*,#519,.F.);
#289=ORIENTED_EDGE('',*,*,#520,.T.);
#290=ORIENTED_EDGE('',*,*,#516,.T.);
#291=ORIENTED_EDGE('',*,*,#521,.F.);
#292=ORIENTED_EDGE('',*,*,#522,.T.);
#293=ORIENTED_EDGE('',*,*,#479,.F.);
#294=ORIENTED_EDGE('',*,*,#523,.T.);
#295=ORIENTED_EDGE('',*,*,#519,.T.);
#296=ORIENTED_EDGE('',*,*,#524,.T.);
#297=ORIENTED_EDGE('',*,*,#525,.F.);
#298=ORIENTED_EDGE('',*,*,#526,.T.);
#299=ORIENTED_EDGE('',*,*,#521,.T.);
#300=ORIENTED_EDGE('',*,*,#527,.T.);
#301=ORIENTED_EDGE('',*,*,#528,.F.);
#302=ORIENTED_EDGE('',*,*,#529,.T.);
#303=ORIENTED_EDGE('',*,*,#525,.T.);
#304=ORIENTED_EDGE('',*,*,#530,.F.);
#305=ORIENTED_EDGE('',*,*,#531,.F.);
#306=ORIENTED_EDGE('',*,*,#532,.T.);
#307=ORIENTED_EDGE('',*,*,#528,.T.);
#308=ORIENTED_EDGE('',*,*,#533,.F.);
#309=ORIENTED_EDGE('',*,*,#501,.F.);
#310=ORIENTED_EDGE('',*,*,#534,.T.);
#311=ORIENTED_EDGE('',*,*,#531,.T.);
#312=ORIENTED_EDGE('',*,*,#535,.F.);
#313=ORIENTED_EDGE('',*,*,#502,.T.);
#314=ORIENTED_EDGE('',*,*,#535,.T.);
#315=ORIENTED_EDGE('',*,*,#533,.T.);
#316=ORIENTED_EDGE('',*,*,#530,.T.);
#317=ORIENTED_EDGE('',*,*,#527,.F.);
#318=ORIENTED_EDGE('',*,*,#524,.F.);
#319=ORIENTED_EDGE('',*,*,#518,.T.);
#320=ORIENTED_EDGE('',*,*,#515,.F.);
#321=ORIENTED_EDGE('',*,*,#511,.T.);
#322=ORIENTED_EDGE('',*,*,#508,.F.);
#323=ORIENTED_EDGE('',*,*,#505,.F.);
#324=ORIENTED_EDGE('',*,*,#536,.F.);
#325=ORIENTED_EDGE('',*,*,#537,.F.);
#326=ORIENTED_EDGE('',*,*,#538,.T.);
#327=ORIENTED_EDGE('',*,*,#474,.T.);
#328=ORIENTED_EDGE('',*,*,#539,.T.);
#329=ORIENTED_EDGE('',*,*,#540,.F.);
#330=ORIENTED_EDGE('',*,*,#541,.F.);
#331=ORIENTED_EDGE('',*,*,#491,.T.);
#332=ORIENTED_EDGE('',*,*,#542,.T.);
#333=ORIENTED_EDGE('',*,*,#543,.F.);
#334=ORIENTED_EDGE('',*,*,#492,.F.);
#335=ORIENTED_EDGE('',*,*,#541,.T.);
#336=ORIENTED_EDGE('',*,*,#544,.F.);
#337=ORIENTED_EDGE('',*,*,#545,.F.);
#338=ORIENTED_EDGE('',*,*,#493,.T.);
#339=ORIENTED_EDGE('',*,*,#543,.T.);
#340=ORIENTED_EDGE('',*,*,#546,.T.);
#341=ORIENTED_EDGE('',*,*,#547,.F.);
#342=ORIENTED_EDGE('',*,*,#494,.F.);
#343=ORIENTED_EDGE('',*,*,#545,.T.);
#344=ORIENTED_EDGE('',*,*,#548,.F.);
#345=ORIENTED_EDGE('',*,*,#549,.F.);
#346=ORIENTED_EDGE('',*,*,#495,.T.);
#347=ORIENTED_EDGE('',*,*,#547,.T.);
#348=ORIENTED_EDGE('',*,*,#550,.F.);
#349=ORIENTED_EDGE('',*,*,#551,.F.);
#350=ORIENTED_EDGE('',*,*,#496,.T.);
#351=ORIENTED_EDGE('',*,*,#549,.T.);
#352=ORIENTED_EDGE('',*,*,#552,.T.);
#353=ORIENTED_EDGE('',*,*,#553,.F.);
#354=ORIENTED_EDGE('',*,*,#497,.F.);
#355=ORIENTED_EDGE('',*,*,#551,.T.);
#356=ORIENTED_EDGE('',*,*,#520,.F.);
#357=ORIENTED_EDGE('',*,*,#523,.F.);
#358=ORIENTED_EDGE('',*,*,#478,.F.);
#359=ORIENTED_EDGE('',*,*,#517,.T.);
#360=ORIENTED_EDGE('',*,*,#554,.T.);
#361=ORIENTED_EDGE('',*,*,#539,.F.);
#362=ORIENTED_EDGE('',*,*,#498,.F.);
#363=ORIENTED_EDGE('',*,*,#553,.T.);
#364=ORIENTED_EDGE('',*,*,#542,.F.);
#365=ORIENTED_EDGE('',*,*,#540,.T.);
#366=ORIENTED_EDGE('',*,*,#554,.F.);
#367=ORIENTED_EDGE('',*,*,#552,.F.);
#368=ORIENTED_EDGE('',*,*,#550,.T.);
#369=ORIENTED_EDGE('',*,*,#548,.T.);
#370=ORIENTED_EDGE('',*,*,#546,.F.);
#371=ORIENTED_EDGE('',*,*,#544,.T.);
#372=ORIENTED_EDGE('',*,*,#555,.F.);
#373=ORIENTED_EDGE('',*,*,#555,.T.);
#374=ORIENTED_EDGE('',*,*,#473,.F.);
#375=ORIENTED_EDGE('',*,*,#556,.F.);
#376=ORIENTED_EDGE('',*,*,#556,.T.);
#377=ORIENTED_EDGE('',*,*,#472,.F.);
#378=ORIENTED_EDGE('',*,*,#557,.F.);
#379=ORIENTED_EDGE('',*,*,#557,.T.);
#380=ORIENTED_EDGE('',*,*,#471,.F.);
#381=ORIENTED_EDGE('',*,*,#558,.F.);
#382=ORIENTED_EDGE('',*,*,#558,.T.);
#383=ORIENTED_EDGE('',*,*,#470,.F.);
#384=ORIENTED_EDGE('',*,*,#482,.F.);
#385=ORIENTED_EDGE('',*,*,#559,.F.);
#386=ORIENTED_EDGE('',*,*,#560,.T.);
#387=ORIENTED_EDGE('',*,*,#561,.T.);
#388=ORIENTED_EDGE('',*,*,#481,.T.);
#389=ORIENTED_EDGE('',*,*,#562,.T.);
#390=ORIENTED_EDGE('',*,*,#563,.F.);
#391=ORIENTED_EDGE('',*,*,#559,.T.);
#392=ORIENTED_EDGE('',*,*,#564,.T.);
#393=ORIENTED_EDGE('',*,*,#565,.T.);
#394=ORIENTED_EDGE('',*,*,#487,.F.);
#395=ORIENTED_EDGE('',*,*,#566,.F.);
#396=ORIENTED_EDGE('',*,*,#486,.T.);
#397=ORIENTED_EDGE('',*,*,#567,.F.);
#398=ORIENTED_EDGE('',*,*,#568,.F.);
#399=ORIENTED_EDGE('',*,*,#566,.T.);
#400=ORIENTED_EDGE('',*,*,#485,.T.);
#401=ORIENTED_EDGE('',*,*,#569,.F.);
#402=ORIENTED_EDGE('',*,*,#570,.F.);
#403=ORIENTED_EDGE('',*,*,#567,.T.);
#404=ORIENTED_EDGE('',*,*,#484,.F.);
#405=ORIENTED_EDGE('',*,*,#571,.F.);
#406=ORIENTED_EDGE('',*,*,#572,.T.);
#407=ORIENTED_EDGE('',*,*,#569,.T.);
#408=ORIENTED_EDGE('',*,*,#483,.T.);
#409=ORIENTED_EDGE('',*,*,#561,.F.);
#410=ORIENTED_EDGE('',*,*,#573,.F.);
#411=ORIENTED_EDGE('',*,*,#571,.T.);
#412=ORIENTED_EDGE('',*,*,#574,.T.);
#413=ORIENTED_EDGE('',*,*,#575,.T.);
#414=ORIENTED_EDGE('',*,*,#564,.F.);
#415=ORIENTED_EDGE('',*,*,#568,.T.);
#416=ORIENTED_EDGE('',*,*,#570,.T.);
#417=ORIENTED_EDGE('',*,*,#572,.F.);
#418=ORIENTED_EDGE('',*,*,#573,.T.);
#419=ORIENTED_EDGE('',*,*,#560,.F.);
#420=ORIENTED_EDGE('',*,*,#563,.T.);
#421=ORIENTED_EDGE('',*,*,#576,.T.);
#422=ORIENTED_EDGE('',*,*,#577,.T.);
#423=ORIENTED_EDGE('',*,*,#578,.T.);
#424=ORIENTED_EDGE('',*,*,#579,.T.);
#425=ORIENTED_EDGE('',*,*,#580,.T.);
#426=ORIENTED_EDGE('',*,*,#522,.F.);
#427=ORIENTED_EDGE('',*,*,#526,.F.);
#428=ORIENTED_EDGE('',*,*,#581,.F.);
#429=ORIENTED_EDGE('',*,*,#576,.F.);
#430=ORIENTED_EDGE('',*,*,#562,.F.);
#431=ORIENTED_EDGE('',*,*,#480,.F.);
#432=ORIENTED_EDGE('',*,*,#581,.T.);
#433=ORIENTED_EDGE('',*,*,#529,.F.);
#434=ORIENTED_EDGE('',*,*,#582,.F.);
#435=ORIENTED_EDGE('',*,*,#577,.F.);
#436=ORIENTED_EDGE('',*,*,#582,.T.);
#437=ORIENTED_EDGE('',*,*,#532,.F.);
#438=ORIENTED_EDGE('',*,*,#583,.F.);
#439=ORIENTED_EDGE('',*,*,#578,.F.);
#440=ORIENTED_EDGE('',*,*,#583,.T.);
#441=ORIENTED_EDGE('',*,*,#534,.F.);
#442=ORIENTED_EDGE('',*,*,#584,.F.);
#443=ORIENTED_EDGE('',*,*,#579,.F.);
#444=ORIENTED_EDGE('',*,*,#584,.T.);
#445=ORIENTED_EDGE('',*,*,#500,.F.);
#446=ORIENTED_EDGE('',*,*,#585,.F.);
#447=ORIENTED_EDGE('',*,*,#580,.F.);
#448=ORIENTED_EDGE('',*,*,#585,.T.);
#449=ORIENTED_EDGE('',*,*,#504,.F.);
#450=ORIENTED_EDGE('',*,*,#586,.F.);
#451=ORIENTED_EDGE('',*,*,#574,.F.);
#452=ORIENTED_EDGE('',*,*,#586,.T.);
#453=ORIENTED_EDGE('',*,*,#507,.F.);
#454=ORIENTED_EDGE('',*,*,#510,.F.);
#455=ORIENTED_EDGE('',*,*,#488,.F.);
#456=ORIENTED_EDGE('',*,*,#565,.F.);
#457=ORIENTED_EDGE('',*,*,#575,.F.);
#458=ORIENTED_EDGE('',*,*,#536,.T.);
#459=ORIENTED_EDGE('',*,*,#490,.T.);
#460=ORIENTED_EDGE('',*,*,#509,.T.);
#461=ORIENTED_EDGE('',*,*,#587,.F.);
#462=ORIENTED_EDGE('',*,*,#537,.T.);
#463=ORIENTED_EDGE('',*,*,#587,.T.);
#464=ORIENTED_EDGE('',*,*,#514,.T.);
#465=ORIENTED_EDGE('',*,*,#588,.F.);
#466=ORIENTED_EDGE('',*,*,#588,.T.);
#467=ORIENTED_EDGE('',*,*,#513,.F.);
#468=ORIENTED_EDGE('',*,*,#475,.F.);
#469=ORIENTED_EDGE('',*,*,#538,.F.);
#470=EDGE_CURVE('',#589,#589,#669,.T.);
#471=EDGE_CURVE('',#590,#590,#670,.T.);
#472=EDGE_CURVE('',#591,#591,#671,.T.);
#473=EDGE_CURVE('',#592,#592,#672,.T.);
#474=EDGE_CURVE('',#593,#594,#18,.T.);
#475=EDGE_CURVE('',#593,#595,#19,.T.);
#476=EDGE_CURVE('',#596,#595,#20,.T.);
#477=EDGE_CURVE('',#596,#597,#21,.T.);
#478=EDGE_CURVE('',#597,#598,#22,.T.);
#479=EDGE_CURVE('',#598,#599,#23,.T.);
#480=EDGE_CURVE('',#599,#600,#24,.T.);
#481=EDGE_CURVE('',#601,#600,#25,.T.);
#482=EDGE_CURVE('',#601,#602,#26,.T.);
#483=EDGE_CURVE('',#603,#602,#673,.T.);
#484=EDGE_CURVE('',#603,#604,#27,.T.);
#485=EDGE_CURVE('',#605,#604,#674,.T.);
#486=EDGE_CURVE('',#606,#605,#28,.T.);
#487=EDGE_CURVE('',#606,#607,#29,.T.);
#488=EDGE_CURVE('',#607,#608,#30,.T.);
#489=EDGE_CURVE('',#609,#608,#31,.T.);
#490=EDGE_CURVE('',#610,#609,#32,.T.);
#491=EDGE_CURVE('',#611,#610,#33,.T.);
#492=EDGE_CURVE('',#611,#612,#34,.T.);
#493=EDGE_CURVE('',#613,#612,#35,.T.);
#494=EDGE_CURVE('',#613,#614,#36,.T.);
#495=EDGE_CURVE('',#615,#614,#37,.T.);
#496=EDGE_CURVE('',#616,#615,#38,.T.);
#497=EDGE_CURVE('',#616,#617,#39,.T.);
#498=EDGE_CURVE('',#617,#594,#40,.T.);
#499=EDGE_CURVE('',#618,#619,#41,.T.);
#500=EDGE_CURVE('',#618,#620,#42,.T.);
#501=EDGE_CURVE('',#620,#621,#43,.T.);
#502=EDGE_CURVE('',#619,#621,#44,.T.);
#503=EDGE_CURVE('',#622,#623,#45,.T.);
#504=EDGE_CURVE('',#622,#618,#46,.T.);
#505=EDGE_CURVE('',#619,#623,#47,.T.);
#506=EDGE_CURVE('',#624,#625,#48,.T.);
#507=EDGE_CURVE('',#624,#622,#49,.T.);
#508=EDGE_CURVE('',#623,#625,#50,.T.);
#509=EDGE_CURVE('',#609,#626,#51,.T.);
#510=EDGE_CURVE('',#608,#624,#52,.T.);
#511=EDGE_CURVE('',#627,#625,#53,.T.);
#512=EDGE_CURVE('',#596,#627,#54,.T.);
#513=EDGE_CURVE('',#595,#628,#55,.T.);
#514=EDGE_CURVE('',#626,#628,#56,.T.);
#515=EDGE_CURVE('',#627,#629,#57,.T.);
#516=EDGE_CURVE('',#630,#629,#58,.T.);
#517=EDGE_CURVE('',#597,#630,#59,.T.);
#518=EDGE_CURVE('',#631,#629,#60,.T.);
#519=EDGE_CURVE('',#632,#631,#61,.T.);
#520=EDGE_CURVE('',#632,#630,#62,.T.);
#521=EDGE_CURVE('',#633,#634,#63,.T.);
#522=EDGE_CURVE('',#633,#599,#64,.T.);
#523=EDGE_CURVE('',#598,#632,#65,.T.);
#524=EDGE_CURVE('',#631,#634,#66,.T.);
#525=EDGE_CURVE('',#635,#636,#67,.T.);
#526=EDGE_CURVE('',#635,#633,#68,.T.);
#527=EDGE_CURVE('',#634,#636,#69,.T.);
#528=EDGE_CURVE('',#637,#638,#70,.T.);
#529=EDGE_CURVE('',#637,#635,#71,.T.);
#530=EDGE_CURVE('',#638,#636,#72,.T.);
#531=EDGE_CURVE('',#639,#640,#73,.T.);
#532=EDGE_CURVE('',#639,#637,#74,.T.);
#533=EDGE_CURVE('',#640,#638,#75,.T.);
#534=EDGE_CURVE('',#620,#639,#76,.T.);
#535=EDGE_CURVE('',#621,#640,#77,.T.);
#536=EDGE_CURVE('',#641,#610,#78,.T.);
#537=EDGE_CURVE('',#642,#641,#79,.T.);
#538=EDGE_CURVE('',#642,#593,#80,.T.);
#539=EDGE_CURVE('',#594,#643,#81,.T.);
#540=EDGE_CURVE('',#644,#643,#82,.T.);
#541=EDGE_CURVE('',#611,#644,#83,.T.);
#542=EDGE_CURVE('',#644,#645,#84,.T.);
#543=EDGE_CURVE('',#612,#645,#85,.T.);
#544=EDGE_CURVE('',#646,#645,#86,.T.);
#545=EDGE_CURVE('',#613,#646,#87,.T.);
#546=EDGE_CURVE('',#646,#647,#88,.T.);
#547=EDGE_CURVE('',#614,#647,#89,.T.);
#548=EDGE_CURVE('',#648,#647,#90,.T.);
#549=EDGE_CURVE('',#615,#648,#91,.T.);
#550=EDGE_CURVE('',#649,#648,#92,.T.);
#551=EDGE_CURVE('',#616,#649,#93,.T.);
#552=EDGE_CURVE('',#649,#650,#94,.T.);
#553=EDGE_CURVE('',#617,#650,#95,.T.);
#554=EDGE_CURVE('',#650,#643,#96,.T.);
#555=EDGE_CURVE('',#651,#651,#675,.T.);
#556=EDGE_CURVE('',#652,#652,#676,.T.);
#557=EDGE_CURVE('',#653,#653,#677,.T.);
#558=EDGE_CURVE('',#654,#654,#678,.T.);
#559=EDGE_CURVE('',#655,#601,#97,.T.);
#560=EDGE_CURVE('',#655,#656,#98,.T.);
#561=EDGE_CURVE('',#656,#602,#99,.T.);
#562=EDGE_CURVE('',#600,#657,#100,.T.);
#563=EDGE_CURVE('',#655,#657,#101,.T.);
#564=EDGE_CURVE('',#658,#659,#102,.T.);
#565=EDGE_CURVE('',#659,#607,#103,.T.);
#566=EDGE_CURVE('',#658,#606,#104,.T.);
#567=EDGE_CURVE('',#660,#605,#105,.T.);
#568=EDGE_CURVE('',#658,#660,#106,.T.);
#569=EDGE_CURVE('',#661,#604,#107,.T.);
#570=EDGE_CURVE('',#660,#661,#679,.T.);
#571=EDGE_CURVE('',#662,#603,#108,.T.);
#572=EDGE_CURVE('',#662,#661,#109,.T.);
#573=EDGE_CURVE('',#662,#656,#680,.T.);
#574=EDGE_CURVE('',#663,#664,#110,.T.);
#575=EDGE_CURVE('',#664,#659,#111,.T.);
#576=EDGE_CURVE('',#657,#665,#112,.T.);
#577=EDGE_CURVE('',#665,#666,#113,.T.);
#578=EDGE_CURVE('',#666,#667,#114,.T.);
#579=EDGE_CURVE('',#667,#668,#115,.T.);
#580=EDGE_CURVE('',#668,#663,#116,.T.);
#581=EDGE_CURVE('',#665,#635,#117,.T.);
#582=EDGE_CURVE('',#666,#637,#118,.F.);
#583=EDGE_CURVE('',#667,#639,#119,.F.);
#584=EDGE_CURVE('',#668,#620,#120,.F.);
#585=EDGE_CURVE('',#663,#618,#121,.T.);
#586=EDGE_CURVE('',#664,#622,#122,.F.);
#587=EDGE_CURVE('',#641,#626,#123,.T.);
#588=EDGE_CURVE('',#642,#628,#124,.T.);
#589=VERTEX_POINT('',#1195);
#590=VERTEX_POINT('',#1197);
#591=VERTEX_POINT('',#1199);
#592=VERTEX_POINT('',#1201);
#593=VERTEX_POINT('',#1203);
#594=VERTEX_POINT('',#1204);
#595=VERTEX_POINT('',#1206);
#596=VERTEX_POINT('',#1208);
#597=VERTEX_POINT('',#1210);
#598=VERTEX_POINT('',#1212);
#599=VERTEX_POINT('',#1214);
#600=VERTEX_POINT('',#1216);
#601=VERTEX_POINT('',#1218);
#602=VERTEX_POINT('',#1220);
#603=VERTEX_POINT('',#1222);
#604=VERTEX_POINT('',#1224);
#605=VERTEX_POINT('',#1226);
#606=VERTEX_POINT('',#1228);
#607=VERTEX_POINT('',#1230);
#608=VERTEX_POINT('',#1232);
#609=VERTEX_POINT('',#1234);
#610=VERTEX_POINT('',#1236);
#611=VERTEX_POINT('',#1238);
#612=VERTEX_POINT('',#1240);
#613=VERTEX_POINT('',#1242);
#614=VERTEX_POINT('',#1244);
#615=VERTEX_POINT('',#1246);
#616=VERTEX_POINT('',#1248);
#617=VERTEX_POINT('',#1250);
#618=VERTEX_POINT('',#1254);
#619=VERTEX_POINT('',#1255);
#620=VERTEX_POINT('',#1257);
#621=VERTEX_POINT('',#1259);
#622=VERTEX_POINT('',#1263);
#623=VERTEX_POINT('',#1264);
#624=VERTEX_POINT('',#1269);
#625=VERTEX_POINT('',#1270);
#626=VERTEX_POINT('',#1275);
#627=VERTEX_POINT('',#1278);
#628=VERTEX_POINT('',#1281);
#629=VERTEX_POINT('',#1285);
#630=VERTEX_POINT('',#1287);
#631=VERTEX_POINT('',#1291);
#632=VERTEX_POINT('',#1293);
#633=VERTEX_POINT('',#1297);
#634=VERTEX_POINT('',#1298);
#635=VERTEX_POINT('',#1304);
#636=VERTEX_POINT('',#1305);
#637=VERTEX_POINT('',#1310);
#638=VERTEX_POINT('',#1311);
#639=VERTEX_POINT('',#1316);
#640=VERTEX_POINT('',#1317);
#641=VERTEX_POINT('',#1326);
#642=VERTEX_POINT('',#1328);
#643=VERTEX_POINT('',#1331);
#644=VERTEX_POINT('',#1333);
#645=VERTEX_POINT('',#1337);
#646=VERTEX_POINT('',#1341);
#647=VERTEX_POINT('',#1345);
#648=VERTEX_POINT('',#1349);
#649=VERTEX_POINT('',#1353);
#650=VERTEX_POINT('',#1357);
#651=VERTEX_POINT('',#1365);
#652=VERTEX_POINT('',#1369);
#653=VERTEX_POINT('',#1373);
#654=VERTEX_POINT('',#1377);
#655=VERTEX_POINT('',#1381);
#656=VERTEX_POINT('',#1383);
#657=VERTEX_POINT('',#1387);
#658=VERTEX_POINT('',#1391);
#659=VERTEX_POINT('',#1392);
#660=VERTEX_POINT('',#1397);
#661=VERTEX_POINT('',#1401);
#662=VERTEX_POINT('',#1405);
#663=VERTEX_POINT('',#1411);
#664=VERTEX_POINT('',#1412);
#665=VERTEX_POINT('',#1415);
#666=VERTEX_POINT('',#1417);
#667=VERTEX_POINT('',#1419);
#668=VERTEX_POINT('',#1421);
#669=CIRCLE('',#901,2.35);
#670=CIRCLE('',#902,2.35);
#671=CIRCLE('',#903,2.35);
#672=CIRCLE('',#904,2.35);
#673=CIRCLE('',#905,6.8);
#674=CIRCLE('',#906,6.81040764008564);
#675=CIRCLE('',#930,2.35);
#676=CIRCLE('',#933,2.35);
#677=CIRCLE('',#936,2.35);
#678=CIRCLE('',#939,2.35);
#679=CIRCLE('',#946,6.81040764008564);
#680=CIRCLE('',#949,6.8);
#681=EDGE_LOOP('',(#232));
#682=EDGE_LOOP('',(#233));
#683=EDGE_LOOP('',(#234));
#684=EDGE_LOOP('',(#235));
#685=EDGE_LOOP('',(#236,#237,#238,#239,#240,#241,#242,#243,#244,#245,#246,
#247,#248,#249,#250,#251,#252,#253,#254,#255,#256,#257,#258,#259,#260));
#686=EDGE_LOOP('',(#261,#262,#263,#264));
#687=EDGE_LOOP('',(#265,#266,#267,#268));
#688=EDGE_LOOP('',(#269,#270,#271,#272));
#689=EDGE_LOOP('',(#273,#274,#275,#276,#277,#278,#279,#280,#281));
#690=EDGE_LOOP('',(#282,#283,#284,#285,#286));
#691=EDGE_LOOP('',(#287,#288,#289,#290));
#692=EDGE_LOOP('',(#291,#292,#293,#294,#295,#296));
#693=EDGE_LOOP('',(#297,#298,#299,#300));
#694=EDGE_LOOP('',(#301,#302,#303,#304));
#695=EDGE_LOOP('',(#305,#306,#307,#308));
#696=EDGE_LOOP('',(#309,#310,#311,#312));
#697=EDGE_LOOP('',(#313,#314,#315,#316,#317,#318,#319,#320,#321,#322,#323));
#698=EDGE_LOOP('',(#324,#325,#326,#327,#328,#329,#330,#331));
#699=EDGE_LOOP('',(#332,#333,#334,#335));
#700=EDGE_LOOP('',(#336,#337,#338,#339));
#701=EDGE_LOOP('',(#340,#341,#342,#343));
#702=EDGE_LOOP('',(#344,#345,#346,#347));
#703=EDGE_LOOP('',(#348,#349,#350,#351));
#704=EDGE_LOOP('',(#352,#353,#354,#355));
#705=EDGE_LOOP('',(#356,#357,#358,#359));
#706=EDGE_LOOP('',(#360,#361,#362,#363));
#707=EDGE_LOOP('',(#364,#365,#366,#367,#368,#369,#370,#371));
#708=EDGE_LOOP('',(#372));
#709=EDGE_LOOP('',(#373));
#710=EDGE_LOOP('',(#374));
#711=EDGE_LOOP('',(#375));
#712=EDGE_LOOP('',(#376));
#713=EDGE_LOOP('',(#377));
#714=EDGE_LOOP('',(#378));
#715=EDGE_LOOP('',(#379));
#716=EDGE_LOOP('',(#380));
#717=EDGE_LOOP('',(#381));
#718=EDGE_LOOP('',(#382));
#719=EDGE_LOOP('',(#383));
#720=EDGE_LOOP('',(#384,#385,#386,#387));
#721=EDGE_LOOP('',(#388,#389,#390,#391));
#722=EDGE_LOOP('',(#392,#393,#394,#395));
#723=EDGE_LOOP('',(#396,#397,#398,#399));
#724=EDGE_LOOP('',(#400,#401,#402,#403));
#725=EDGE_LOOP('',(#404,#405,#406,#407));
#726=EDGE_LOOP('',(#408,#409,#410,#411));
#727=EDGE_LOOP('',(#412,#413,#414,#415,#416,#417,#418,#419,#420,#421,#422,
#423,#424,#425));
#728=EDGE_LOOP('',(#426,#427,#428,#429,#430,#431));
#729=EDGE_LOOP('',(#432,#433,#434,#435));
#730=EDGE_LOOP('',(#436,#437,#438,#439));
#731=EDGE_LOOP('',(#440,#441,#442,#443));
#732=EDGE_LOOP('',(#444,#445,#446,#447));
#733=EDGE_LOOP('',(#448,#449,#450,#451));
#734=EDGE_LOOP('',(#452,#453,#454,#455,#456,#457));
#735=EDGE_LOOP('',(#458,#459,#460,#461));
#736=EDGE_LOOP('',(#462,#463,#464,#465));
#737=EDGE_LOOP('',(#466,#467,#468,#469));
#738=FACE_BOUND('',#681,.T.);
#739=FACE_BOUND('',#682,.T.);
#740=FACE_BOUND('',#683,.T.);
#741=FACE_BOUND('',#684,.T.);
#742=FACE_BOUND('',#685,.T.);
#743=FACE_BOUND('',#686,.T.);
#744=FACE_BOUND('',#687,.T.);
#745=FACE_BOUND('',#688,.T.);
#746=FACE_BOUND('',#689,.T.);
#747=FACE_BOUND('',#690,.T.);
#748=FACE_BOUND('',#691,.T.);
#749=FACE_BOUND('',#692,.T.);
#750=FACE_BOUND('',#693,.T.);
#751=FACE_BOUND('',#694,.T.);
#752=FACE_BOUND('',#695,.T.);
#753=FACE_BOUND('',#696,.T.);
#754=FACE_BOUND('',#697,.T.);
#755=FACE_BOUND('',#698,.T.);
#756=FACE_BOUND('',#699,.T.);
#757=FACE_BOUND('',#700,.T.);
#758=FACE_BOUND('',#701,.T.);
#759=FACE_BOUND('',#702,.T.);
#760=FACE_BOUND('',#703,.T.);
#761=FACE_BOUND('',#704,.T.);
#762=FACE_BOUND('',#705,.T.);
#763=FACE_BOUND('',#706,.T.);
#764=FACE_BOUND('',#707,.T.);
#765=FACE_BOUND('',#708,.T.);
#766=FACE_BOUND('',#709,.T.);
#767=FACE_BOUND('',#710,.T.);
#768=FACE_BOUND('',#711,.T.);
#769=FACE_BOUND('',#712,.T.);
#770=FACE_BOUND('',#713,.T.);
#771=FACE_BOUND('',#714,.T.);
#772=FACE_BOUND('',#715,.T.);
#773=FACE_BOUND('',#716,.T.);
#774=FACE_BOUND('',#717,.T.);
#775=FACE_BOUND('',#718,.T.);
#776=FACE_BOUND('',#719,.T.);
#777=FACE_BOUND('',#720,.T.);
#778=FACE_BOUND('',#721,.T.);
#779=FACE_BOUND('',#722,.T.);
#780=FACE_BOUND('',#723,.T.);
#781=FACE_BOUND('',#724,.T.);
#782=FACE_BOUND('',#725,.T.);
#783=FACE_BOUND('',#726,.T.);
#784=FACE_BOUND('',#727,.T.);
#785=FACE_BOUND('',#728,.T.);
#786=FACE_BOUND('',#729,.T.);
#787=FACE_BOUND('',#730,.T.);
#788=FACE_BOUND('',#731,.T.);
#789=FACE_BOUND('',#732,.T.);
#790=FACE_BOUND('',#733,.T.);
#791=FACE_BOUND('',#734,.T.);
#792=FACE_BOUND('',#735,.T.);
#793=FACE_BOUND('',#736,.T.);
#794=FACE_BOUND('',#737,.T.);
#795=PLANE('',#900);
#796=PLANE('',#907);
#797=PLANE('',#908);
#798=PLANE('',#909);
#799=PLANE('',#910);
#800=PLANE('',#911);
#801=PLANE('',#912);
#802=PLANE('',#913);
#803=PLANE('',#914);
#804=PLANE('',#915);
#805=PLANE('',#916);
#806=PLANE('',#917);
#807=PLANE('',#918);
#808=PLANE('',#919);
#809=PLANE('',#920);
#810=PLANE('',#921);
#811=PLANE('',#922);
#812=PLANE('',#923);
#813=PLANE('',#924);
#814=PLANE('',#925);
#815=PLANE('',#926);
#816=PLANE('',#927);
#817=PLANE('',#928);
#818=PLANE('',#929);
#819=PLANE('',#932);
#820=PLANE('',#935);
#821=PLANE('',#938);
#822=PLANE('',#941);
#823=PLANE('',#942);
#824=PLANE('',#943);
#825=PLANE('',#944);
#826=PLANE('',#947);
#827=PLANE('',#950);
#828=PLANE('',#951);
#829=PLANE('',#952);
#830=PLANE('',#953);
#831=PLANE('',#954);
#832=PLANE('',#955);
#833=PLANE('',#956);
#834=PLANE('',#957);
#835=PLANE('',#958);
#836=PLANE('',#959);
#837=PLANE('',#960);
#838=ADVANCED_FACE('',(#738,#739,#740,#741,#742),#795,.T.);
#839=ADVANCED_FACE('',(#743),#796,.T.);
#840=ADVANCED_FACE('',(#744),#797,.F.);
#841=ADVANCED_FACE('',(#745),#798,.F.);
#842=ADVANCED_FACE('',(#746),#799,.T.);
#843=ADVANCED_FACE('',(#747),#800,.F.);
#844=ADVANCED_FACE('',(#748),#801,.T.);
#845=ADVANCED_FACE('',(#749),#802,.F.);
#846=ADVANCED_FACE('',(#750),#803,.F.);
#847=ADVANCED_FACE('',(#751),#804,.T.);
#848=ADVANCED_FACE('',(#752),#805,.T.);
#849=ADVANCED_FACE('',(#753),#806,.T.);
#850=ADVANCED_FACE('',(#754),#807,.F.);
#851=ADVANCED_FACE('',(#755),#808,.T.);
#852=ADVANCED_FACE('',(#756),#809,.F.);
#853=ADVANCED_FACE('',(#757),#810,.T.);
#854=ADVANCED_FACE('',(#758),#811,.F.);
#855=ADVANCED_FACE('',(#759),#812,.T.);
#856=ADVANCED_FACE('',(#760),#813,.T.);
#857=ADVANCED_FACE('',(#761),#814,.F.);
#858=ADVANCED_FACE('',(#762),#815,.F.);
#859=ADVANCED_FACE('',(#763),#816,.F.);
#860=ADVANCED_FACE('',(#764),#817,.T.);
#861=ADVANCED_FACE('',(#765),#818,.T.);
#862=ADVANCED_FACE('',(#766,#767),#12,.F.);
#863=ADVANCED_FACE('',(#768),#819,.T.);
#864=ADVANCED_FACE('',(#769,#770),#13,.F.);
#865=ADVANCED_FACE('',(#771),#820,.T.);
#866=ADVANCED_FACE('',(#772,#773),#14,.F.);
#867=ADVANCED_FACE('',(#774),#821,.T.);
#868=ADVANCED_FACE('',(#775,#776),#15,.F.);
#869=ADVANCED_FACE('',(#777),#822,.T.);
#870=ADVANCED_FACE('',(#778),#823,.F.);
#871=ADVANCED_FACE('',(#779),#824,.T.);
#872=ADVANCED_FACE('',(#780),#825,.F.);
#873=ADVANCED_FACE('',(#781),#16,.F.);
#874=ADVANCED_FACE('',(#782),#826,.T.);
#875=ADVANCED_FACE('',(#783),#17,.F.);
#876=ADVANCED_FACE('',(#784),#827,.T.);
#877=ADVANCED_FACE('',(#785),#828,.T.);
#878=ADVANCED_FACE('',(#786),#829,.F.);
#879=ADVANCED_FACE('',(#787),#830,.F.);
#880=ADVANCED_FACE('',(#788),#831,.F.);
#881=ADVANCED_FACE('',(#789),#832,.F.);
#882=ADVANCED_FACE('',(#790),#833,.T.);
#883=ADVANCED_FACE('',(#791),#834,.T.);
#884=ADVANCED_FACE('',(#792),#835,.F.);
#885=ADVANCED_FACE('',(#793),#836,.F.);
#886=ADVANCED_FACE('',(#794),#837,.T.);
#887=CLOSED_SHELL('',(#838,#839,#840,#841,#842,#843,#844,#845,#846,#847,
#848,#849,#850,#851,#852,#853,#854,#855,#856,#857,#858,#859,#860,#861,#862,
#863,#864,#865,#866,#867,#868,#869,#870,#871,#872,#873,#874,#875,#876,#877,
#878,#879,#880,#881,#882,#883,#884,#885,#886));
#888=STYLED_ITEM('',(#889),#896);
#889=PRESENTATION_STYLE_ASSIGNMENT((#890));
#890=SURFACE_STYLE_USAGE(.BOTH.,#891);
#891=SURFACE_SIDE_STYLE('',(#892));
#892=SURFACE_STYLE_FILL_AREA(#893);
#893=FILL_AREA_STYLE('',(#894));
#894=FILL_AREA_STYLE_COLOUR('',#895);
#895=COLOUR_RGB('',0.615686274509804,0.811764705882353,0.929411764705882);
#896=MANIFOLD_SOLID_BREP('case',#887);
#897=SHAPE_DEFINITION_REPRESENTATION(#1447,#898);
#898=SHAPE_REPRESENTATION('case',(#899),#1442);
#899=AXIS2_PLACEMENT_3D('',#1192,#961,#962);
#900=AXIS2_PLACEMENT_3D('',#1193,#963,#964);
#901=AXIS2_PLACEMENT_3D('',#1194,#965,#966);
#902=AXIS2_PLACEMENT_3D('',#1196,#967,#968);
#903=AXIS2_PLACEMENT_3D('',#1198,#969,#970);
#904=AXIS2_PLACEMENT_3D('',#1200,#971,#972);
#905=AXIS2_PLACEMENT_3D('',#1221,#982,#983);
#906=AXIS2_PLACEMENT_3D('',#1225,#985,#986);
#907=AXIS2_PLACEMENT_3D('',#1252,#1000,#1001);
#908=AXIS2_PLACEMENT_3D('',#1261,#1006,#1007);
#909=AXIS2_PLACEMENT_3D('',#1267,#1011,#1012);
#910=AXIS2_PLACEMENT_3D('',#1273,#1016,#1017);
#911=AXIS2_PLACEMENT_3D('',#1283,#1024,#1025);
#912=AXIS2_PLACEMENT_3D('',#1289,#1029,#1030);
#913=AXIS2_PLACEMENT_3D('',#1295,#1034,#1035);
#914=AXIS2_PLACEMENT_3D('',#1302,#1040,#1041);
#915=AXIS2_PLACEMENT_3D('',#1308,#1045,#1046);
#916=AXIS2_PLACEMENT_3D('',#1314,#1050,#1051);
#917=AXIS2_PLACEMENT_3D('',#1320,#1055,#1056);
#918=AXIS2_PLACEMENT_3D('',#1323,#1059,#1060);
#919=AXIS2_PLACEMENT_3D('',#1324,#1061,#1062);
#920=AXIS2_PLACEMENT_3D('',#1335,#1069,#1070);
#921=AXIS2_PLACEMENT_3D('',#1339,#1073,#1074);
#922=AXIS2_PLACEMENT_3D('',#1343,#1077,#1078);
#923=AXIS2_PLACEMENT_3D('',#1347,#1081,#1082);
#924=AXIS2_PLACEMENT_3D('',#1351,#1085,#1086);
#925=AXIS2_PLACEMENT_3D('',#1355,#1089,#1090);
#926=AXIS2_PLACEMENT_3D('',#1359,#1093,#1094);
#927=AXIS2_PLACEMENT_3D('',#1360,#1095,#1096);
#928=AXIS2_PLACEMENT_3D('',#1362,#1098,#1099);
#929=AXIS2_PLACEMENT_3D('',#1363,#1100,#1101);
#930=AXIS2_PLACEMENT_3D('',#1364,#1102,#1103);
#931=AXIS2_PLACEMENT_3D('',#1366,#1104,#1105);
#932=AXIS2_PLACEMENT_3D('',#1367,#1106,#1107);
#933=AXIS2_PLACEMENT_3D('',#1368,#1108,#1109);
#934=AXIS2_PLACEMENT_3D('',#1370,#1110,#1111);
#935=AXIS2_PLACEMENT_3D('',#1371,#1112,#1113);
#936=AXIS2_PLACEMENT_3D('',#1372,#1114,#1115);
#937=AXIS2_PLACEMENT_3D('',#1374,#1116,#1117);
#938=AXIS2_PLACEMENT_3D('',#1375,#1118,#1119);
#939=AXIS2_PLACEMENT_3D('',#1376,#1120,#1121);
#940=AXIS2_PLACEMENT_3D('',#1378,#1122,#1123);
#941=AXIS2_PLACEMENT_3D('',#1379,#1124,#1125);
#942=AXIS2_PLACEMENT_3D('',#1385,#1129,#1130);
#943=AXIS2_PLACEMENT_3D('',#1389,#1133,#1134);
#944=AXIS2_PLACEMENT_3D('',#1395,#1138,#1139);
#945=AXIS2_PLACEMENT_3D('',#1399,#1142,#1143);
#946=AXIS2_PLACEMENT_3D('',#1402,#1145,#1146);
#947=AXIS2_PLACEMENT_3D('',#1403,#1147,#1148);
#948=AXIS2_PLACEMENT_3D('',#1407,#1151,#1152);
#949=AXIS2_PLACEMENT_3D('',#1408,#1153,#1154);
#950=AXIS2_PLACEMENT_3D('',#1409,#1155,#1156);
#951=AXIS2_PLACEMENT_3D('',#1423,#1164,#1165);
#952=AXIS2_PLACEMENT_3D('',#1425,#1167,#1168);
#953=AXIS2_PLACEMENT_3D('',#1427,#1170,#1171);
#954=AXIS2_PLACEMENT_3D('',#1429,#1173,#1174);
#955=AXIS2_PLACEMENT_3D('',#1431,#1176,#1177);
#956=AXIS2_PLACEMENT_3D('',#1433,#1179,#1180);
#957=AXIS2_PLACEMENT_3D('',#1435,#1182,#1183);
#958=AXIS2_PLACEMENT_3D('',#1436,#1184,#1185);
#959=AXIS2_PLACEMENT_3D('',#1438,#1187,#1188);
#960=AXIS2_PLACEMENT_3D('',#1440,#1190,#1191);
#961=DIRECTION('',(0.,0.,1.));
#962=DIRECTION('',(1.,0.,0.));
#963=DIRECTION('',(0.,1.,0.));
#964=DIRECTION('',(1.,0.,0.));
#965=DIRECTION('',(0.,-1.,0.));
#966=DIRECTION('',(-1.,0.,0.));
#967=DIRECTION('',(0.,-1.,0.));
#968=DIRECTION('',(-1.,0.,0.));
#969=DIRECTION('',(0.,-1.,0.));
#970=DIRECTION('',(-1.,0.,0.));
#971=DIRECTION('',(0.,-1.,0.));
#972=DIRECTION('',(-1.,0.,0.));
#973=DIRECTION('',(0.,0.,1.));
#974=DIRECTION('',(-1.,0.,0.));
#975=DIRECTION('',(0.,0.,-1.));
#976=DIRECTION('',(0.287347885566346,0.,0.957826285221151));
#977=DIRECTION('',(0.980588215690195,0.,0.196078431372549));
#978=DIRECTION('',(1.,0.,-6.93889390390723E-17));
#979=DIRECTION('',(0.707106781186548,0.,-0.707106781186548));
#980=DIRECTION('',(0.0196502676865768,0.,0.999806914848985));
#981=DIRECTION('',(-1.90819582357449E-16,0.,-1.));
#982=DIRECTION('',(0.,-1.,0.));
#983=DIRECTION('',(1.,0.,0.));
#984=DIRECTION('',(-1.,0.,2.77584646167195E-16));
#985=DIRECTION('',(0.,-1.,0.));
#986=DIRECTION('',(1.,0.,0.));
#987=DIRECTION('',(0.,0.,-1.));
#988=DIRECTION('',(0.101830105935862,0.,0.994801804142459));
#989=DIRECTION('',(0.505787547055815,0.,0.862658076669582));
#990=DIRECTION('',(0.,0.,-1.));
#991=DIRECTION('',(-1.,0.,0.));
#992=DIRECTION('',(0.,0.,1.));
#993=DIRECTION('',(0.707106781186548,0.,-0.707106781186548));
#994=DIRECTION('',(-1.,0.,0.));
#995=DIRECTION('',(0.707106781186549,0.,0.707106781186547));
#996=DIRECTION('',(0.,0.,-1.));
#997=DIRECTION('',(0.707106781186544,0.,-0.707106781186552));
#998=DIRECTION('',(-1.,0.,0.));
#999=DIRECTION('',(-0.707106781186537,0.,-0.707106781186559));
#1000=DIRECTION('',(-0.707106781186548,0.,-0.707106781186547));
#1001=DIRECTION('',(-0.707106781186547,0.,0.707106781186548));
#1002=DIRECTION('',(0.,-1.,0.));
#1003=DIRECTION('',(0.707106781186547,0.,-0.707106781186548));
#1004=DIRECTION('',(0.,-1.,0.));
#1005=DIRECTION('',(0.707106781186547,0.,-0.707106781186548));
#1006=DIRECTION('',(1.,0.,0.));
#1007=DIRECTION('',(0.,-1.,0.));
#1008=DIRECTION('',(0.,-1.,0.));
#1009=DIRECTION('',(0.,0.,-1.));
#1010=DIRECTION('',(0.,0.,1.));
#1011=DIRECTION('',(0.862658076669582,0.,-0.505787547055815));
#1012=DIRECTION('',(-0.505787547055815,0.,-0.862658076669582));
#1013=DIRECTION('',(0.,-1.,0.));
#1014=DIRECTION('',(-0.505787547055815,0.,-0.862658076669582));
#1015=DIRECTION('',(0.505787547055815,0.,0.862658076669582));
#1016=DIRECTION('',(-1.,0.,0.));
#1017=DIRECTION('',(0.,1.,0.));
#1018=DIRECTION('',(0.,-1.,0.));
#1019=DIRECTION('',(0.,-0.451340446776987,0.892351837059324));
#1020=DIRECTION('',(0.,0.,-1.));
#1021=DIRECTION('',(0.,-1.,0.));
#1022=DIRECTION('',(0.,-1.,0.));
#1023=DIRECTION('',(0.,0.,1.));
#1024=DIRECTION('',(0.957826285221151,0.,-0.287347885566346));
#1025=DIRECTION('',(-0.287347885566346,0.,-0.957826285221151));
#1026=DIRECTION('',(0.287347885566346,0.,0.957826285221151));
#1027=DIRECTION('',(0.,-1.,0.));
#1028=DIRECTION('',(0.,-1.,0.));
#1029=DIRECTION('',(-0.196116135138184,0.,0.98058067569092));
#1030=DIRECTION('',(0.98058067569092,0.,0.196116135138184));
#1031=DIRECTION('',(-0.98058067569092,0.,-0.196116135138184));
#1032=DIRECTION('',(0.,-1.,0.));
#1033=DIRECTION('',(-0.98058067569092,0.,-0.196116135138184));
#1034=DIRECTION('',(-6.93889390390723E-17,0.,-1.));
#1035=DIRECTION('',(-1.,0.,6.93889390390723E-17));
#1036=DIRECTION('',(0.,-1.,0.));
#1037=DIRECTION('',(-0.816496580927726,0.577350269189625,5.6655831479605E-17));
#1038=DIRECTION('',(0.,-1.,0.));
#1039=DIRECTION('',(1.,0.,-6.93889390390723E-17));
#1040=DIRECTION('',(-0.707106781186548,0.,-0.707106781186548));
#1041=DIRECTION('',(-0.707106781186548,0.,0.707106781186548));
#1042=DIRECTION('',(0.,-1.,0.));
#1043=DIRECTION('',(-0.707106781186548,0.,0.707106781186548));
#1044=DIRECTION('',(0.707106781186548,0.,-0.707106781186548));
#1045=DIRECTION('',(1.,0.,0.));
#1046=DIRECTION('',(0.,-1.,0.));
#1047=DIRECTION('',(0.,-1.,0.));
#1048=DIRECTION('',(0.,0.,1.));
#1049=DIRECTION('',(0.,0.,1.));
#1050=DIRECTION('',(0.707106781186547,0.,-0.707106781186548));
#1051=DIRECTION('',(-0.707106781186548,0.,-0.707106781186547));
#1052=DIRECTION('',(0.,-1.,0.));
#1053=DIRECTION('',(0.707106781186548,0.,0.707106781186547));
#1054=DIRECTION('',(0.707106781186548,0.,0.707106781186547));
#1055=DIRECTION('',(0.,0.,-1.));
#1056=DIRECTION('',(0.,1.,0.));
#1057=DIRECTION('',(1.,0.,0.));
#1058=DIRECTION('',(1.,0.,0.));
#1059=DIRECTION('',(0.,1.,0.));
#1060=DIRECTION('',(1.,0.,0.));
#1061=DIRECTION('',(1.,0.,0.));
#1062=DIRECTION('',(0.,-1.,0.));
#1063=DIRECTION('',(0.,1.,0.));
#1064=DIRECTION('',(0.,0.,-1.));
#1065=DIRECTION('',(0.,1.,0.));
#1066=DIRECTION('',(0.,-1.,0.));
#1067=DIRECTION('',(0.,0.,1.));
#1068=DIRECTION('',(0.,-1.,0.));
#1069=DIRECTION('',(-0.707106781186548,0.,-0.707106781186548));
#1070=DIRECTION('',(-0.707106781186548,0.,0.707106781186548));
#1071=DIRECTION('',(0.707106781186548,0.,-0.707106781186548));
#1072=DIRECTION('',(0.,-1.,0.));
#1073=DIRECTION('',(0.,0.,1.));
#1074=DIRECTION('',(0.,-1.,0.));
#1075=DIRECTION('',(-1.,0.,0.));
#1076=DIRECTION('',(0.,-1.,0.));
#1077=DIRECTION('',(0.707106781186547,0.,-0.707106781186549));
#1078=DIRECTION('',(-0.707106781186549,0.,-0.707106781186547));
#1079=DIRECTION('',(0.707106781186549,0.,0.707106781186547));
#1080=DIRECTION('',(0.,-1.,0.));
#1081=DIRECTION('',(-1.,0.,0.));
#1082=DIRECTION('',(0.,1.,0.));
#1083=DIRECTION('',(0.,0.,-1.));
#1084=DIRECTION('',(0.,-1.,0.));
#1085=DIRECTION('',(-0.707106781186552,0.,-0.707106781186544));
#1086=DIRECTION('',(-0.707106781186544,0.,0.707106781186552));
#1087=DIRECTION('',(0.707106781186544,0.,-0.707106781186552));
#1088=DIRECTION('',(0.,-1.,0.));
#1089=DIRECTION('',(0.,0.,1.));
#1090=DIRECTION('',(0.,-1.,0.));
#1091=DIRECTION('',(-1.,0.,0.));
#1092=DIRECTION('',(0.,-1.,0.));
#1093=DIRECTION('',(0.196078431372549,0.,-0.980588215690195));
#1094=DIRECTION('',(-0.980588215690195,0.,-0.196078431372549));
#1095=DIRECTION('',(-0.707106781186559,0.,0.707106781186537));
#1096=DIRECTION('',(0.707106781186537,0.,0.707106781186559));
#1097=DIRECTION('',(-0.707106781186537,0.,-0.707106781186559));
#1098=DIRECTION('',(0.,1.,0.));
#1099=DIRECTION('',(1.,0.,0.));
#1100=DIRECTION('',(0.,1.,0.));
#1101=DIRECTION('',(1.,0.,0.));
#1102=DIRECTION('',(0.,-1.,0.));
#1103=DIRECTION('',(-1.,0.,0.));
#1104=DIRECTION('',(0.,-1.,0.));
#1105=DIRECTION('',(-1.,0.,0.));
#1106=DIRECTION('',(0.,1.,0.));
#1107=DIRECTION('',(1.,0.,0.));
#1108=DIRECTION('',(0.,-1.,0.));
#1109=DIRECTION('',(-1.,0.,0.));
#1110=DIRECTION('',(0.,-1.,0.));
#1111=DIRECTION('',(-1.,0.,0.));
#1112=DIRECTION('',(0.,1.,0.));
#1113=DIRECTION('',(1.,0.,0.));
#1114=DIRECTION('',(0.,-1.,0.));
#1115=DIRECTION('',(-1.,0.,0.));
#1116=DIRECTION('',(0.,-1.,0.));
#1117=DIRECTION('',(-1.,0.,0.));
#1118=DIRECTION('',(0.,1.,0.));
#1119=DIRECTION('',(1.,0.,0.));
#1120=DIRECTION('',(0.,-1.,0.));
#1121=DIRECTION('',(-1.,0.,0.));
#1122=DIRECTION('',(0.,-1.,0.));
#1123=DIRECTION('',(-1.,0.,0.));
#1124=DIRECTION('',(-1.,0.,1.90819582357449E-16));
#1125=DIRECTION('',(1.90819582357449E-16,0.,1.));
#1126=DIRECTION('',(0.,-1.,0.));
#1127=DIRECTION('',(-1.90819582357449E-16,0.,-1.));
#1128=DIRECTION('',(0.,-1.,0.));
#1129=DIRECTION('',(0.999806914848985,0.,-0.0196502676865768));
#1130=DIRECTION('',(-0.0196502676865768,0.,-0.999806914848985));
#1131=DIRECTION('',(-0.015940325582475,0.584766801628772,-0.811044816106472));
#1132=DIRECTION('',(0.0196502676865768,0.,0.999806914848985));
#1133=DIRECTION('',(0.994801804142459,0.,-0.101830105935862));
#1134=DIRECTION('',(-0.101830105935862,0.,-0.994801804142459));
#1135=DIRECTION('',(0.101830105935862,0.,0.994801804142459));
#1136=DIRECTION('',(0.0940421274762564,-0.383550552721329,0.918719245344791));
#1137=DIRECTION('',(0.,-1.,0.));
#1138=DIRECTION('',(-1.,0.,0.));
#1139=DIRECTION('',(0.,1.,0.));
#1140=DIRECTION('',(0.,-1.,0.));
#1141=DIRECTION('',(0.,0.,-1.));
#1142=DIRECTION('',(0.,-1.,0.));
#1143=DIRECTION('',(-1.,0.,0.));
#1144=DIRECTION('',(0.,-1.,0.));
#1145=DIRECTION('',(0.,-1.,0.));
#1146=DIRECTION('',(1.,0.,0.));
#1147=DIRECTION('',(2.77584646167195E-16,0.,1.));
#1148=DIRECTION('',(1.,0.,-2.77584646167195E-16));
#1149=DIRECTION('',(0.,-1.,0.));
#1150=DIRECTION('',(-1.,0.,2.77584646167195E-16));
#1151=DIRECTION('',(0.,-1.,0.));
#1152=DIRECTION('',(-1.,0.,0.));
#1153=DIRECTION('',(0.,-1.,0.));
#1154=DIRECTION('',(1.,0.,0.));
#1155=DIRECTION('',(0.,1.,0.));
#1156=DIRECTION('',(1.,0.,0.));
#1157=DIRECTION('',(0.,0.,1.));
#1158=DIRECTION('',(0.505787547055815,0.,0.862658076669582));
#1159=DIRECTION('',(0.707106781186548,0.,-0.707106781186548));
#1160=DIRECTION('',(0.,0.,-1.));
#1161=DIRECTION('',(-0.707106781186548,0.,-0.707106781186547));
#1162=DIRECTION('',(-1.,0.,0.));
#1163=DIRECTION('',(-0.707106781186547,0.,0.707106781186548));
#1164=DIRECTION('',(0.5,0.707106781186548,0.5));
#1165=DIRECTION('',(-0.707106781186548,0.,0.707106781186548));
#1166=DIRECTION('',(0.678598344545846,-0.678598344545847,0.281084637714822));
#1167=DIRECTION('',(-0.707106781186548,-0.707106781186547,0.));
#1168=DIRECTION('',(0.,0.,1.));
#1169=DIRECTION('',(-0.678598344545846,0.678598344545847,0.281084637714822));
#1170=DIRECTION('',(-0.5,-0.707106781186548,0.5));
#1171=DIRECTION('',(0.707106781186548,0.,0.707106781186547));
#1172=DIRECTION('',(-0.28108463771482,0.678598344545847,0.678598344545847));
#1173=DIRECTION('',(0.,-0.707106781186548,0.707106781186547));
#1174=DIRECTION('',(1.,0.,0.));
#1175=DIRECTION('',(0.28108463771482,0.678598344545847,0.678598344545847));
#1176=DIRECTION('',(0.5,-0.707106781186548,0.5));
#1177=DIRECTION('',(0.707106781186547,0.,-0.707106781186548));
#1178=DIRECTION('',(-0.678598344545847,-0.678598344545847,-0.28108463771482));
#1179=DIRECTION('',(-0.707106781186547,0.707106781186548,0.));
#1180=DIRECTION('',(0.,0.,-1.));
#1181=DIRECTION('',(0.694421945100766,0.694421945100765,-0.188563846813062));
#1182=DIRECTION('',(-0.609991375858407,0.707106781186547,0.357645804362877));
#1183=DIRECTION('',(-0.505787547055815,0.,-0.862658076669582));
#1184=DIRECTION('',(0.,0.,-1.));
#1185=DIRECTION('',(0.,1.,0.));
#1186=DIRECTION('',(-1.,0.,0.));
#1187=DIRECTION('',(0.,-1.,0.));
#1188=DIRECTION('',(-1.,0.,0.));
#1189=DIRECTION('',(-1.,0.,0.));
#1190=DIRECTION('',(0.,0.,-1.));
#1191=DIRECTION('',(0.,1.,0.));
#1192=CARTESIAN_POINT('',(0.,0.,0.));
#1193=CARTESIAN_POINT('',(-50.,25.,-50.));
#1194=CARTESIAN_POINT('',(-96.6,25.,5.39999999999985));
#1195=CARTESIAN_POINT('',(-98.95,25.,5.39999999999985));
#1196=CARTESIAN_POINT('',(2.77555756156289E-14,25.,3.42));
#1197=CARTESIAN_POINT('',(-2.34999999999997,25.,3.42));
#1198=CARTESIAN_POINT('',(2.77555756156289E-14,25.,-103.4));
#1199=CARTESIAN_POINT('',(-2.34999999999997,25.,-103.4));
#1200=CARTESIAN_POINT('',(-99.9947961799572,25.,-103.4));
#1201=CARTESIAN_POINT('',(-102.344796179957,25.,-103.4));
#1202=CARTESIAN_POINT('',(-100.8,25.,-56.945));
#1203=CARTESIAN_POINT('',(-100.8,25.,-5.06218802183867));
#1204=CARTESIAN_POINT('',(-100.8,25.,-1.65340831304039E-14));
#1205=CARTESIAN_POINT('',(-78.,25.,-5.06218802183867));
#1206=CARTESIAN_POINT('',(-103.,25.,-5.06218802183867));
#1207=CARTESIAN_POINT('',(-103.,25.,-9.335));
#1208=CARTESIAN_POINT('',(-103.,25.,-1.17093834628434E-13));
#1209=CARTESIAN_POINT('',(-101.5,25.,5.));
#1210=CARTESIAN_POINT('',(-100.,25.,10.));
#1211=CARTESIAN_POINT('',(-74.9950004999,25.,15.));
#1212=CARTESIAN_POINT('',(-49.9900009998,25.,20.));
#1213=CARTESIAN_POINT('',(-25.,25.,20.));
#1214=CARTESIAN_POINT('',(-1.4142135623731,25.,20.));
#1215=CARTESIAN_POINT('',(9.29289321881345,25.,9.29289321881344));
#1216=CARTESIAN_POINT('',(7.0271736982815,25.,11.5586127393454));
#1217=CARTESIAN_POINT('',(6.92721649222078,25.,6.47278350777924));
#1218=CARTESIAN_POINT('',(6.8,25.,0.));
#1219=CARTESIAN_POINT('',(6.8,25.,-50.));
#1220=CARTESIAN_POINT('',(6.8,25.,-100.));
#1221=CARTESIAN_POINT('',(4.15598846154945E-14,25.,-100.));
#1222=CARTESIAN_POINT('',(4.16333634234433E-14,25.,-106.8));
#1223=CARTESIAN_POINT('',(-49.9947961799571,25.,-106.8));
#1224=CARTESIAN_POINT('',(-99.9895923599143,25.,-106.8));
#1225=CARTESIAN_POINT('',(-99.9895923599143,25.,-99.9895923599143));
#1226=CARTESIAN_POINT('',(-106.8,25.,-99.9895923599143));
#1227=CARTESIAN_POINT('',(-106.8,25.,-74.9743770875438));
#1228=CARTESIAN_POINT('',(-106.8,25.,-49.9591618151733));
#1229=CARTESIAN_POINT('',(-103.939438827732,25.,-22.0136795937961));
#1230=CARTESIAN_POINT('',(-104.258271838388,25.,-25.1284328517423));
#1231=CARTESIAN_POINT('',(-101.229868930359,25.,-19.9632676687942));
#1232=CARTESIAN_POINT('',(-103.,25.,-22.982357151876));
#1233=CARTESIAN_POINT('',(-103.,25.,-9.335));
#1234=CARTESIAN_POINT('',(-103.,25.,-16.3407903164625));
#1235=CARTESIAN_POINT('',(-78.,25.,-16.3407903164625));
#1236=CARTESIAN_POINT('',(-100.8,25.,-16.3407903164625));
#1237=CARTESIAN_POINT('',(-100.8,25.,-56.945));
#1238=CARTESIAN_POINT('',(-100.8,25.,-100.));
#1239=CARTESIAN_POINT('',(-100.4,25.,-100.4));
#1240=CARTESIAN_POINT('',(-100.,25.,-100.8));
#1241=CARTESIAN_POINT('',(-50.,25.,-100.8));
#1242=CARTESIAN_POINT('',(-6.93889390390723E-15,25.,-100.8));
#1243=CARTESIAN_POINT('',(0.399999999999984,25.,-100.4));
#1244=CARTESIAN_POINT('',(0.8,25.,-100.));
#1245=CARTESIAN_POINT('',(0.8,25.,-50.));
#1246=CARTESIAN_POINT('',(0.8,25.,-1.7347234759768E-15));
#1247=CARTESIAN_POINT('',(0.4,25.,0.399999999999995));
#1248=CARTESIAN_POINT('',(5.09575021068187E-15,25.,0.8));
#1249=CARTESIAN_POINT('',(-50.,25.,0.8));
#1250=CARTESIAN_POINT('',(-100.,25.,0.800000000000018));
#1251=CARTESIAN_POINT('',(-100.4,25.,0.4));
#1252=CARTESIAN_POINT('',(-110.,5.,-110.));
#1253=CARTESIAN_POINT('',(-120.,5.,-100.));
#1254=CARTESIAN_POINT('',(-120.,24.,-100.));
#1255=CARTESIAN_POINT('',(-120.,0.,-100.));
#1256=CARTESIAN_POINT('',(-110.,24.,-110.));
#1257=CARTESIAN_POINT('',(-100.,24.,-120.));
#1258=CARTESIAN_POINT('',(-100.,5.,-120.));
#1259=CARTESIAN_POINT('',(-100.,0.,-120.));
#1260=CARTESIAN_POINT('',(-110.,0.,-110.));
#1261=CARTESIAN_POINT('',(-120.,5.,-75.));
#1262=CARTESIAN_POINT('',(-120.,5.,-50.));
#1263=CARTESIAN_POINT('',(-120.,24.,-50.));
#1264=CARTESIAN_POINT('',(-120.,0.,-50.));
#1265=CARTESIAN_POINT('',(-120.,24.,-100.));
#1266=CARTESIAN_POINT('',(-120.,0.,-75.));
#1267=CARTESIAN_POINT('',(-115.,5.,-41.4721301296255));
#1268=CARTESIAN_POINT('',(-103.,5.,-21.005242440727));
#1269=CARTESIAN_POINT('',(-103.,24.,-21.005242440727));
#1270=CARTESIAN_POINT('',(-103.,0.,-21.005242440727));
#1271=CARTESIAN_POINT('',(-120.,24.,-50.));
#1272=CARTESIAN_POINT('',(-115.,0.,-41.4721301296255));
#1273=CARTESIAN_POINT('',(-103.,5.,-9.335));
#1274=CARTESIAN_POINT('',(-103.,21.9291940331459,-16.3407903164625));
#1275=CARTESIAN_POINT('',(-103.,18.8583880662918,-16.3407903164625));
#1276=CARTESIAN_POINT('',(-103.,25.4137137859415,-23.8003167642662));
#1277=CARTESIAN_POINT('',(-103.,0.,-9.335));
#1278=CARTESIAN_POINT('',(-103.,0.,-1.17093834628434E-13));
#1279=CARTESIAN_POINT('',(-103.,5.,-1.17093834628434E-13));
#1280=CARTESIAN_POINT('',(-103.,21.9291940331459,-5.06218802183867));
#1281=CARTESIAN_POINT('',(-103.,18.8583880662918,-5.06218802183867));
#1282=CARTESIAN_POINT('',(-103.,18.8583880662918,-10.7014891691506));
#1283=CARTESIAN_POINT('',(-101.5,5.,5.));
#1284=CARTESIAN_POINT('',(-101.5,0.,5.));
#1285=CARTESIAN_POINT('',(-100.,0.,10.));
#1286=CARTESIAN_POINT('',(-100.,5.,10.));
#1287=CARTESIAN_POINT('',(-100.,5.,10.));
#1288=CARTESIAN_POINT('',(-100.,25.,10.));
#1289=CARTESIAN_POINT('',(-75.,5.,15.));
#1290=CARTESIAN_POINT('',(-75.,0.,15.));
#1291=CARTESIAN_POINT('',(-50.,0.,20.));
#1292=CARTESIAN_POINT('',(-50.,5.,20.));
#1293=CARTESIAN_POINT('',(-49.9950004999,5.,20.));
#1294=CARTESIAN_POINT('',(-75.,5.,15.));
#1295=CARTESIAN_POINT('',(-25.,5.,20.));
#1296=CARTESIAN_POINT('',(0.,5.,20.));
#1297=CARTESIAN_POINT('',(0.,24.,20.));
#1298=CARTESIAN_POINT('',(0.,0.,20.));
#1299=CARTESIAN_POINT('',(1.95262145875635,22.619288125423,20.));
#1300=CARTESIAN_POINT('',(-49.9900009998,25.,20.));
#1301=CARTESIAN_POINT('',(-25.,0.,20.));
#1302=CARTESIAN_POINT('',(10.,5.,10.));
#1303=CARTESIAN_POINT('',(20.,5.,-3.46944695195361E-15));
#1304=CARTESIAN_POINT('',(20.,24.,-3.46944695195361E-15));
#1305=CARTESIAN_POINT('',(20.,0.,-3.46944695195361E-15));
#1306=CARTESIAN_POINT('',(7.05443298444151,24.,12.9455670155585));
#1307=CARTESIAN_POINT('',(10.,0.,10.));
#1308=CARTESIAN_POINT('',(20.,5.,-50.));
#1309=CARTESIAN_POINT('',(20.,5.,-100.));
#1310=CARTESIAN_POINT('',(20.,24.,-100.));
#1311=CARTESIAN_POINT('',(20.,0.,-100.));
#1312=CARTESIAN_POINT('',(20.,24.,-50.));
#1313=CARTESIAN_POINT('',(20.,0.,-50.));
#1314=CARTESIAN_POINT('',(10.,5.,-110.));
#1315=CARTESIAN_POINT('',(-8.67361737988404E-15,5.,-120.));
#1316=CARTESIAN_POINT('',(-8.67361737988404E-15,24.,-120.));
#1317=CARTESIAN_POINT('',(-8.67361737988404E-15,0.,-120.));
#1318=CARTESIAN_POINT('',(10.,24.,-110.));
#1319=CARTESIAN_POINT('',(10.,0.,-110.));
#1320=CARTESIAN_POINT('',(-50.,5.,-120.));
#1321=CARTESIAN_POINT('',(-50.,24.,-120.));
#1322=CARTESIAN_POINT('',(-50.,0.,-120.));
#1323=CARTESIAN_POINT('',(-50.,0.,-50.));
#1324=CARTESIAN_POINT('',(-100.8,25.,-56.945));
#1325=CARTESIAN_POINT('',(-100.8,25.,-16.3407903164625));
#1326=CARTESIAN_POINT('',(-100.8,18.8583880662918,-16.3407903164625));
#1327=CARTESIAN_POINT('',(-100.8,18.8583880662918,-56.945));
#1328=CARTESIAN_POINT('',(-100.8,18.8583880662918,-5.06218802183867));
#1329=CARTESIAN_POINT('',(-100.8,25.,-5.06218802183867));
#1330=CARTESIAN_POINT('',(-100.8,25.,-1.65340831304039E-14));
#1331=CARTESIAN_POINT('',(-100.8,5.,-1.65340831304039E-14));
#1332=CARTESIAN_POINT('',(-100.8,5.,-56.945));
#1333=CARTESIAN_POINT('',(-100.8,5.,-100.));
#1334=CARTESIAN_POINT('',(-100.8,25.,-100.));
#1335=CARTESIAN_POINT('',(-100.4,25.,-100.4));
#1336=CARTESIAN_POINT('',(-100.4,5.,-100.4));
#1337=CARTESIAN_POINT('',(-100.,5.,-100.8));
#1338=CARTESIAN_POINT('',(-100.,25.,-100.8));
#1339=CARTESIAN_POINT('',(-50.,25.,-100.8));
#1340=CARTESIAN_POINT('',(-50.,5.,-100.8));
#1341=CARTESIAN_POINT('',(-6.93889390390723E-15,5.,-100.8));
#1342=CARTESIAN_POINT('',(-6.93889390390723E-15,25.,-100.8));
#1343=CARTESIAN_POINT('',(0.399999999999984,25.,-100.4));
#1344=CARTESIAN_POINT('',(0.399999999999984,5.,-100.4));
#1345=CARTESIAN_POINT('',(0.8,5.,-100.));
#1346=CARTESIAN_POINT('',(0.8,25.,-100.));
#1347=CARTESIAN_POINT('',(0.8,25.,-50.));
#1348=CARTESIAN_POINT('',(0.8,5.,-50.));
#1349=CARTESIAN_POINT('',(0.8,5.,-1.7347234759768E-15));
#1350=CARTESIAN_POINT('',(0.8,25.,-1.7347234759768E-15));
#1351=CARTESIAN_POINT('',(0.4,25.,0.399999999999995));
#1352=CARTESIAN_POINT('',(0.4,5.,0.399999999999995));
#1353=CARTESIAN_POINT('',(5.09575021068187E-15,5.,0.8));
#1354=CARTESIAN_POINT('',(5.09575021068187E-15,25.,0.8));
#1355=CARTESIAN_POINT('',(-50.,25.,0.8));
#1356=CARTESIAN_POINT('',(-50.,5.,0.8));
#1357=CARTESIAN_POINT('',(-100.,5.,0.800000000000018));
#1358=CARTESIAN_POINT('',(-100.,25.,0.800000000000018));
#1359=CARTESIAN_POINT('',(-74.9950004999,25.,15.));
#1360=CARTESIAN_POINT('',(-100.4,25.,0.4));
#1361=CARTESIAN_POINT('',(-100.4,5.,0.4));
#1362=CARTESIAN_POINT('',(-50.,5.,-50.));
#1363=CARTESIAN_POINT('',(-97.6447961799572,21.,-103.4));
#1364=CARTESIAN_POINT('',(-99.9947961799572,21.,-103.4));
#1365=CARTESIAN_POINT('',(-102.344796179957,21.,-103.4));
#1366=CARTESIAN_POINT('',(-99.9947961799572,25.,-103.4));
#1367=CARTESIAN_POINT('',(2.35000000000004,21.,-103.4));
#1368=CARTESIAN_POINT('',(2.77555756156289E-14,21.,-103.4));
#1369=CARTESIAN_POINT('',(-2.34999999999997,21.,-103.4));
#1370=CARTESIAN_POINT('',(2.77555756156289E-14,25.,-103.4));
#1371=CARTESIAN_POINT('',(2.35000000000004,21.,3.42));
#1372=CARTESIAN_POINT('',(2.77555756156289E-14,21.,3.42));
#1373=CARTESIAN_POINT('',(-2.34999999999997,21.,3.42));
#1374=CARTESIAN_POINT('',(2.77555756156289E-14,25.,3.42));
#1375=CARTESIAN_POINT('',(-94.25,21.,5.39999999999985));
#1376=CARTESIAN_POINT('',(-96.6,21.,5.39999999999985));
#1377=CARTESIAN_POINT('',(-98.95,21.,5.39999999999985));
#1378=CARTESIAN_POINT('',(-96.6,25.,5.39999999999985));
#1379=CARTESIAN_POINT('',(6.8,29.,-50.));
#1380=CARTESIAN_POINT('',(6.8,29.,0.));
#1381=CARTESIAN_POINT('',(6.8,29.,0.));
#1382=CARTESIAN_POINT('',(6.8,29.,-50.));
#1383=CARTESIAN_POINT('',(6.8,29.,-100.));
#1384=CARTESIAN_POINT('',(6.8,29.,-100.));
#1385=CARTESIAN_POINT('',(6.92721649222078,29.,6.47278350777924));
#1386=CARTESIAN_POINT('',(6.9238864748729,28.7890655977674,6.30335200567003));
#1387=CARTESIAN_POINT('',(6.91813655364145,29.,6.01079563449307));
#1388=CARTESIAN_POINT('',(6.92721649222078,29.,6.47278350777924));
#1389=CARTESIAN_POINT('',(-103.939438827732,29.,-22.0136795937961));
#1390=CARTESIAN_POINT('',(-103.939438827732,29.,-22.0136795937961));
#1391=CARTESIAN_POINT('',(-106.8,29.,-49.9591618151733));
#1392=CARTESIAN_POINT('',(-105.239025241652,29.,-34.7096391759297));
#1393=CARTESIAN_POINT('',(-104.1306223191,24.4793817941865,-23.8813952402353));
#1394=CARTESIAN_POINT('',(-106.8,29.,-49.9591618151733));
#1395=CARTESIAN_POINT('',(-106.8,29.,-74.9743770875438));
#1396=CARTESIAN_POINT('',(-106.8,29.,-99.9895923599143));
#1397=CARTESIAN_POINT('',(-106.8,29.,-99.9895923599143));
#1398=CARTESIAN_POINT('',(-106.8,29.,-74.9743770875438));
#1399=CARTESIAN_POINT('',(-99.9895923599143,29.,-99.9895923599143));
#1400=CARTESIAN_POINT('',(-99.9895923599143,29.,-106.8));
#1401=CARTESIAN_POINT('',(-99.9895923599143,29.,-106.8));
#1402=CARTESIAN_POINT('',(-99.9895923599143,29.,-99.9895923599143));
#1403=CARTESIAN_POINT('',(-49.9947961799571,29.,-106.8));
#1404=CARTESIAN_POINT('',(4.16333634234433E-14,29.,-106.8));
#1405=CARTESIAN_POINT('',(4.16333634234433E-14,29.,-106.8));
#1406=CARTESIAN_POINT('',(-49.9947961799571,29.,-106.8));
#1407=CARTESIAN_POINT('',(4.15598846154945E-14,29.,-100.));
#1408=CARTESIAN_POINT('',(4.15598846154945E-14,29.,-100.));
#1409=CARTESIAN_POINT('',(-50.,29.,-50.));
#1410=CARTESIAN_POINT('',(-115.,29.,-50.));
#1411=CARTESIAN_POINT('',(-115.,29.,-97.9289321881345));
#1412=CARTESIAN_POINT('',(-115.,29.,-51.3577036853703));
#1413=CARTESIAN_POINT('',(-99.6997931042247,29.,-25.2620690059746));
#1414=CARTESIAN_POINT('',(16.4644660940673,29.,-3.53553390593274));
#1415=CARTESIAN_POINT('',(15.,29.,-2.07106781186549));
#1416=CARTESIAN_POINT('',(15.,29.,-50.));
#1417=CARTESIAN_POINT('',(15.,29.,-97.9289321881345));
#1418=CARTESIAN_POINT('',(6.46446609406723,29.,-106.464466094067));
#1419=CARTESIAN_POINT('',(-2.07106781186548,29.,-115.));
#1420=CARTESIAN_POINT('',(-50.,29.,-115.));
#1421=CARTESIAN_POINT('',(-97.9289321881346,29.,-115.));
#1422=CARTESIAN_POINT('',(-106.464466094067,29.,-106.464466094067));
#1423=CARTESIAN_POINT('',(6.46446609406725,29.,6.46446609406727));
#1424=CARTESIAN_POINT('',(12.6975214338982,31.3024785661018,-3.02478566101822));
#1425=CARTESIAN_POINT('',(20.,24.,-50.));
#1426=CARTESIAN_POINT('',(10.4628215084726,33.5371784915273,-96.0495713220364));
#1427=CARTESIAN_POINT('',(10.,24.,-110.));
#1428=CARTESIAN_POINT('',(-1.11734996271275,26.6975214338982,-117.302478566102));
#1429=CARTESIAN_POINT('',(-50.,24.,-120.));
#1430=CARTESIAN_POINT('',(-96.0495713220365,33.5371784915273,-110.462821508473));
#1431=CARTESIAN_POINT('',(-110.,24.,-110.));
#1432=CARTESIAN_POINT('',(-117.302478566102,26.6975214338982,-98.8826500372873));
#1433=CARTESIAN_POINT('',(-115.,29.,-50.));
#1434=CARTESIAN_POINT('',(-115.177781621625,28.8222183783753,-51.3094287327961));
#1435=CARTESIAN_POINT('',(-97.7792366236804,29.,-21.9864178570174));
#1436=CARTESIAN_POINT('',(-78.,21.9291940331459,-16.3407903164625));
#1437=CARTESIAN_POINT('',(-78.,18.8583880662918,-16.3407903164625));
#1438=CARTESIAN_POINT('',(-78.,18.8583880662918,-10.7014891691506));
#1439=CARTESIAN_POINT('',(-78.,18.8583880662918,-5.06218802183867));
#1440=CARTESIAN_POINT('',(-78.,21.9291940331459,-5.06218802183867));
#1441=MECHANICAL_DESIGN_GEOMETRIC_PRESENTATION_REPRESENTATION('',(#888),
#1442);
#1442=(
GEOMETRIC_REPRESENTATION_CONTEXT(3)
GLOBAL_UNCERTAINTY_ASSIGNED_CONTEXT((#1443))
GLOBAL_UNIT_ASSIGNED_CONTEXT((#1446,#1445,#1444))
REPRESENTATION_CONTEXT('case','TOP_LEVEL_ASSEMBLY_PART')
);
#1443=UNCERTAINTY_MEASURE_WITH_UNIT(LENGTH_MEASURE(0.0299990001999817),
#1446,'DISTANCE_ACCURACY_VALUE','Maximum Tolerance applied to model');
#1444=(
NAMED_UNIT(*)
SI_UNIT($,.STERADIAN.)
SOLID_ANGLE_UNIT()
);
#1445=(
NAMED_UNIT(*)
PLANE_ANGLE_UNIT()
SI_UNIT($,.RADIAN.)
);
#1446=(
LENGTH_UNIT()
NAMED_UNIT(*)
SI_UNIT(.MILLI.,.METRE.)
);
#1447=PRODUCT_DEFINITION_SHAPE('','',#1448);
#1448=PRODUCT_DEFINITION('','',#1450,#1449);
#1449=PRODUCT_DEFINITION_CONTEXT('',#1456,'design');
#1450=PRODUCT_DEFINITION_FORMATION_WITH_SPECIFIED_SOURCE('','',#1452,
 .NOT_KNOWN.);
#1451=PRODUCT_RELATED_PRODUCT_CATEGORY('','',(#1452));
#1452=PRODUCT('case','case','case',(#1454));
#1453=PRODUCT_CATEGORY('','');
#1454=PRODUCT_CONTEXT('',#1456,'mechanical');
#1455=APPLICATION_PROTOCOL_DEFINITION('international standard',
'ap242_managed_model_based_3d_engineering',2020,#1456);
#1456=APPLICATION_CONTEXT('managed model based 3d engineering');
ENDSEC;
END-ISO-10303-21;
